<svg xmlns="http://www.w3.org/2000/svg" viewBox="0 0 248.08 248.08"><defs><style>.cls-1{fill:#2a3a91;}.cls-2{fill:#e53626;}.cls-3{fill:#f2f3f4;}.cls-4{fill:#da3028;}.cls-5{fill:#e6e5e5;}.cls-6{fill:#da3128;}.cls-7{fill:#e63625;}.cls-8{fill:#e03226;}.cls-9{fill:#db3027;}.cls-10{fill:#b13e32;}.cls-11{fill:#010000;}.cls-12{fill:#e33a2a;}.cls-13{fill:#e2e3e9;}.cls-14{fill:#e7e7eb;}.cls-15{fill:#e3e1e1;}.cls-16{fill:#e6e6e6;}</style></defs><title>en_1</title><g id="Layer_2" data-name="Layer 2"><g id="Layer_1-2" data-name="Layer 1"><path class="cls-1" d="M0,112.89v-2.42c1.33-.07.87-1.13,1-1.82A100.9,100.9,0,0,1,4.23,92.14c1.51.93,2.59,2.54,4.51,2.81l0,.32.2,0L8.72,95c-1.68-3.66-.84-6.44,2.86-8.24a2.77,2.77,0,0,0,0-.5H5.88a39,39,0,0,1,2.31-6.81,101.73,101.73,0,0,1,11.28-21.8c1.88.72,2.42,1.87,1.55,3.82-.41.92-1.09,2-.57,3.11h-.2l.17,0c2.82-2.85,5.67-3.48,8.61-.17,0,.05.25,0,.41-.09-.18-1.77-1.82-3.52-1.14-5s2.53-2.26,4.05-3.5c-2-.59-4.29.64-5.52-.69S25.41,51.71,24.75,50A97.32,97.32,0,0,1,39.83,32.78a3,3,0,0,1,.87-.39c.06.72.13,1.77,1.09.7,2.61-2.94,5-2.17,7.42.18.12.12.4.07.74.11-.13-1.86-1.73-3.52-1.09-5.11s2.83-1.89,3.93-3.44l-2.55-.32c3.43-3,7.41-5.24,11.31-7.56a2.1,2.1,0,0,1,.82,2.8c-.4,1.14-1.22,2.23-.79,3.57l-.3.06s.09.06.11,0a1.14,1.14,0,0,0,.16-.15c2.67-2.31,5.37-3.72,8.25-.3,0,0,.25-.06.38-.1l3-8.42a17,17,0,0,1-2.68,0c-.92-.16-2.15.75-2.72-.72.11-.12.19-.28.33-.35A122,122,0,0,1,108.66,1c.68-.09,1.75.37,1.81-1h3.88c.16.65.32.18.48,0h6.79q0,11.4,0,22.79c-.11,7.47-.31,15,.11,22.42-.36,7.58-.27,15.16,0,22.74a.58.58,0,0,0,0,.39q-.44,10.88,0,21.76a.52.52,0,0,0,0,.37c-.06,6.53-.25,13.06-.09,19.58.07,2.57-.77,3-3.11,3q-57.33-.11-114.66,0c-1.13,0-2.25.07-3.38.1ZM61.63,64.57c1.36-1,2.61-2.42,4.14-2.84,1.32-.36,2.34,1.44,3.61,2.09a2.82,2.82,0,0,0,.81.09c.36-1.78-1.6-3.39-.74-4.83s2.43-2.09,4.21-3.51a22.49,22.49,0,0,0-3.29,0c-2,.33-3-.5-3.34-2.43A5.39,5.39,0,0,0,65.48,50c0,5-2.52,6.5-6.9,5.65a9.56,9.56,0,0,0,2.35,2c1.64.9,2,2,1.23,3.75-.42.93-1.14,2-.51,3.16l-.31-.09.08,0Zm49.8-41.3.29.19,0-.19-.3.05c-.89-3.37-1.51-6.65,2.74-8.34,0,0,0-.27,0-.41-1.69-.49-3.73.64-5.1-.6-1.2-1.09-.82-3.26-2.4-5-.07,4.91-2.5,6.49-6.94,5.55,1.46,1.43,3.28,2.22,3.88,3.56.69,1.56-.87,3.29-1.17,5,0,.09.12.21.35.58C105.49,19.73,108.45,20.46,111.43,23.27ZM70.24,84.82l.25.34c.24-.22.16-.4,0-.57A12.61,12.61,0,0,0,69.75,82c-1-1.84-.3-3,1.35-3.91a4.76,4.76,0,0,0,2.43-2.37c-4.79,1.56-6.89-.56-7.61-5.12-.57,4.77-3,6.55-7.84,5.6C62.85,78,63.27,81,61,85.3c2.21-1.38,3.62-3,5-3S68.82,83.93,70.24,84.82Zm-49.91,0c2.93-2.23,5.84-3.29,8.68.15.06.08.26,0,.51.07C29,83.25,28,81.47,28.24,79.91s2.85-2,4.33-4.1c-4.8,1.36-7.15-.48-7.86-5.35-.11,5.42-3.15,6.38-7.64,5.77,4.31,1.84,5,4.66,3.26,8.34,0,.06,0,.16,0,.24a.59.59,0,0,0-.19,0s0,.1,0,.15Zm82.46-41.09c2.84-2.61,5.67-3,8.49,0,0,0,.14,0,.62-.17-2.87-3.88-1-6.45,2.85-8.6-4.77,1.13-7-.78-7.7-5.45-.58,4.78-3,6.49-7.88,5.59,4.82,1.73,5,4.74,3.4,8.36-.22.16-.36.33-.07.54A2.39,2.39,0,0,0,102.79,43.68ZM24.71,91.49c-.63,1.62-.88,3.61-2,4.75s-3.46-.14-5.68,1c4.63,1.63,5.2,4.51,3.07,8.61,3.34-3.83,6.31-3.33,9.54.08-2.41-4.18-1.57-7.09,2.9-9.15C27.84,97.56,25.25,96.1,24.71,91.49ZM38,45l.06.67c1.35,1.09,3.44,2,3.86,3.33s-.7,3.41-1.14,5.15c3.1-3.21,6.06-3.33,9.42.32-2.7-4.39-1.09-7.06,2.92-9.18-4.93,1.14-7.14-1-7.77-5.69C44.84,44.27,42.76,46.41,38,45ZM65.75,91.74c-.61,1.55-.82,3.69-2,4.48s-3.34.43-5.48.59c1.62,1.29,3.39,2.07,4.09,3.41.78,1.5-.79,3.17-1.16,4.92,2,0,2.89-2,4.46-2.3,1.75-.29,2.59,2.18,4.52,2.2.3-1.86-1.61-3.39-.74-5,.8-1.41,2.89-1.75,4.08-3.8C68.81,97.76,66.59,95.9,65.75,91.74Zm34,5.34c1.29,1,3,1.8,3.74,3.13.8,1.5-.81,3.17-1.25,5.87,3.19-3.25,6.08-4.21,9.43-.54-2.8-4.43-.57-6.67,3.41-8.68-2.57-.21-4.58.16-5.94-.62s-1-3.31-2.56-5.23C106.65,96.14,104,97.44,99.78,97.08Zm-17.7-42.9c1.47-1,2.94-2.67,4.41-2.68s3,1.7,4.75,2.87c-.54-2-1.7-3.93-1.25-5.31s2.49-2.36,3.83-3.51c-4.64,1-6.44-1.44-7.13-5.35,0-.07-.19-.1-.35-.18a17.74,17.74,0,0,0-.94,2.77c-.34,1.92-1.29,2.73-3.3,2.45a4.3,4.3,0,0,0-3.39.56C83.6,47.36,83.8,50.41,82.08,54.18Zm4.3,27c-.6,1.65-.76,3.91-1.94,4.77s-3.43.43-5.62.58c1.68,1.3,3.51,2.06,4.19,3.41.76,1.53-.91,3.25-1.09,5,0,.1.14.21.39.58,2.76-3.75,5.71-3.31,8.73.27,0-.84.09-1.13,0-1.3-1.91-3.26-1.1-5.62,2.27-7.21.32-.15.72-.38.35-1.09C89.31,87.48,87.08,85.54,86.38,81.16ZM40.63,95.62c3.26-4,6.22-3.49,9.24.16.09-2.35-1.54-4-1.13-5.57s2.7-2.1,3.9-3.38c.08-.08,0-.29,0-.69-4.51,1.42-6.65-.79-7.07-5.93-.94,2.59-1.09,4.86-2.27,5.73s-3.44.41-5.23.53C42.16,88.48,42.92,91.35,40.63,95.62ZM58.27,35.07c1.62,1.32,3.46,2.17,4.18,3.58s-1.14,3.25-.91,5.76c2.86-3.74,5.69-3.88,8.49-.57l3.24-9.12c-4.34,1.34-6.67-.45-7.2-5-.92,1.88-1.12,3.88-2.22,4.84C62.58,35.67,60.45,34.71,58.27,35.07ZM107.1,70.68c-.59,4.83-3.13,6.44-7.79,5.52,4.17,2,5.62,4.61,2.65,8.76,2.37-.52,3.36-2.57,5-2.68s2.63,2,4.49,2.45c.11-1.92-1.68-3.58-.89-5s2.56-2.23,3.9-3.32C110.3,76.91,107.49,75.77,107.1,70.68ZM94.18,24.79c-4.91,1.07-7.11-1-7.68-5.68-.47,4.68-2.8,6.47-7.09,5.66,0,0-.14.23-.35.6,4.42,1.37,4.74,4.37,2.31,8.67,2.27-1.45,3.73-3.11,5.21-3.12s2.84,1.67,4.26,2.61h.76C88.64,29.46,90.08,26.83,94.18,24.79ZM40.69,74.94c3.14-3.74,6-3.15,8.79-.42.05,0,.25-.08.74-.25C47.41,70.52,49.07,68,53,65.87c-5.2,1.4-6.9-1.36-7.72-5.66C44.87,65,42.59,67,37.68,66,42.18,67.93,42.92,70.79,40.69,74.94ZM94,66c-2.12-.42-4.32.61-5.52-.56s-1.3-3.2-1.89-4.85C85.91,64.87,83.75,67,79,65.82c1.55,1.48,3.6,2.35,4,3.73s-.7,3.29-1.15,5C85,71.44,88,71.29,91,74.93c-.34-2.07-1.51-4-1.07-5.35S92.43,67.32,94,66Zm20.21-10c-4.54.89-6.43-1.54-7.25-5.85-.48,4.68-2.86,6.44-7.48,5.64,4.08,1.92,5.26,4.46,2.63,8.19,2.32-.07,3.31-2.39,4.79-2.24s2.89,1.59,4.42,2.52c.29-2-1.57-3.63-.82-5.07S113,57,114.25,56Z"/><path class="cls-2" d="M0,137.12v-1.45c.43-.71,1,.19,1.46-.12.73,0,1.45.1,2.18.1H168.85c.72,0,1.45-.07,2.17-.1h1.46l2.93.16a8,8,0,0,0-.46,2.1c.34,6.85-1.13,13.61-1,20.44l-.47.2c-1,0-2.09-.11-3.14-.11q-23.48,0-46.95,0L5,158.35A102.18,102.18,0,0,1,.93,139C.84,138.33,1.45,137.17,0,137.12Z"/><path class="cls-3" d="M175.41,135.72l-2.93-.16c-.15-.22-.31-.22-.47,0h-1c-.78-.62-1.71-.36-2.57-.36H4c-.87,0-1.79-.26-2.58.36-.46.31-1-.59-1.46.12V112.89l.45.21c.64.06,1.28.16,1.91.16q84.23,0,168.45,0a17.48,17.48,0,0,1,4.57.09l0,22.2Z"/><path class="cls-4" d="M248.08,137.12c-1.41.09-.85,1.23-.94,1.92a103.77,103.77,0,0,1-4.07,19.32l-67.71,0c-.48,0-1-.08-1.44-.12-.1-6.83,1.37-13.59,1-20.44a8,8,0,0,1,.46-2.1l-.06-.17,45.91.08,26.82,0Z"/><path class="cls-5" d="M248.08,135.67l-26.82,0-45.91-.08,0-22.2c1,0,1.93-.08,2.9-.08h66c.88,0,1.76-.08,2.64-.12.43-.08.64.86,1.18.24Z"/><path class="cls-6" d="M248.08,113.38c-.54.62-.75-.32-1.17-.24a4.84,4.84,0,0,0-2.61-.23q-33.13,0-66.28,0c-2,0-3.15-.64-3.07-2.63.28-6.61-1.12-13.13-1-19.72a4.51,4.51,0,0,1,.72-.12l68.56,0c2.19,6.06,3,12.4,3.95,18.73.11.75-.57,2,.92,2.21Z"/><path class="cls-7" d="M111,248.08c.18-1.32-.93-.81-1.41-.87a123,123,0,0,1-32.35-8.37,112.41,112.41,0,0,1-22.46-12.11c.9-.83,2-.45,3-.45q44.58,0,89.15,0c.94,0,1.95.3,2.81-.38l4.85,0a5.81,5.81,0,0,1-1,2.16,49.86,49.86,0,0,1-6.75,9c-4.39,4.44-9,8.63-15.61,9.73-.78.13-2.09-.12-2.3,1.28Z"/><path class="cls-8" d="M136.64,0c.21,1.43,1.39.83,2.13.93A121.25,121.25,0,0,1,195.26,22.7c-1,0-1.92.08-2.88.09l-36.86.08-33.89-.08q0-11.4,0-22.79h7.75c0,.4.08.82.59.71.17,0,.25-.46.38-.71Z"/><path class="cls-9" d="M128.88,248.08c.21-1.4,1.52-1.15,2.3-1.28,6.56-1.1,11.22-5.29,15.61-9.73a49.86,49.86,0,0,0,6.75-9,5.81,5.81,0,0,0,1-2.16l.48,0c.87.67,1.87.37,2.81.38,10.9,0,21.8,0,32.7,0,.93,0,2-.33,2.78.44a119.72,119.72,0,0,1-45.24,18.93,93.39,93.39,0,0,1-10,1.54c-.52.05-1.59-.39-1.46.89Z"/><path class="cls-10" d="M130.34,0c-.13.25-.21.68-.38.71-.51.11-.58-.31-.59-.71Z"/><path class="cls-11" d="M114.83,0c-.16.18-.32.65-.48,0Z"/><path class="cls-12" d="M173.93,90.59c-.1,6.59,1.3,13.11,1,19.72-.08,2,1,2.63,3.07,2.63q33.14-.1,66.28,0a4.84,4.84,0,0,1,2.61.23c-.89,0-1.77.12-2.65.12h-66c-1,0-1.93,0-2.9.08a17.48,17.48,0,0,0-4.57-.09q-84.22,0-168.45,0c-.63,0-1.27-.1-1.91-.16,1.13,0,2.25-.1,3.38-.1q57.33,0,114.66,0c2.34,0,3.18-.42,3.11-3-.16-6.52,0-13,.09-19.58q18.12,0,36.24,0c3.86,0,7.72-.08,11.58-.13a11.47,11.47,0,0,0,3.92,0Z"/><path class="cls-3" d="M173.43,90.38a11.47,11.47,0,0,1-3.92,0,19.25,19.25,0,0,0-2.13-.23H121.7q-.44-10.89,0-21.76h42.59a3.85,3.85,0,0,0,2.36-.3l3.42-.23.46.26c.27,1.73.53,3.47.79,5.2C172.17,79,173.28,84.61,173.43,90.38Z"/><path class="cls-2" d="M170.07,67.81l-3.42.23-45-.09c-.22-7.58-.31-15.16,0-22.74l11.11,0,31.41,0,.47.17c.71,2.45,1.47,4.89,2.12,7.35C168.15,57.66,169.7,62.61,170.07,67.81Z"/><path class="cls-3" d="M164.26,45.14l-31.41,0-11.11,0c-.42-7.47-.22-14.95-.11-22.42l33.89.08c1.35,2.82,2.82,5.59,4,8.47C161.4,35.83,163.59,40.23,164.26,45.14Z"/><path class="cls-13" d="M19.47,57.62a3.8,3.8,0,0,1,1.78-2.4c2.05-1.15,2.38-3.46,3.5-5.23.66,1.72.92,3.8,2.08,5.06s3.52.1,5.52.69C30.83,57,29,57.83,28.3,59.24s1,3.25,1.14,5c-.16,0-.37.14-.41.09-2.94-3.31-5.79-2.68-8.61.17l0,0c-.52-1.16.16-2.19.57-3.11C21.89,59.49,21.35,58.34,19.47,57.62Z"/><path class="cls-13" d="M24.71,91.49c.54,4.61,3.13,6.07,7.83,5.25-4.47,2.06-5.31,5-2.9,9.15-3.23-3.41-6.2-3.91-9.54-.08,2.13-4.1,1.56-7-3.07-8.61,2.22-1.1,4.49.26,5.68-1S24.08,93.11,24.71,91.49Z"/><path class="cls-13" d="M38,45c4.79,1.46,6.87-.68,7.35-5.4.63,4.7,2.84,6.83,7.77,5.69-4,2.12-5.62,4.79-2.92,9.18-3.36-3.65-6.32-3.53-9.42-.32.44-1.74,1.58-3.68,1.14-5.15S39.38,46.71,38,45.62Z"/><path class="cls-13" d="M65.75,91.74c.84,4.16,3.06,6,7.81,4.55-1.19,2-3.28,2.39-4.08,3.8-.87,1.56,1,3.09.74,5-1.93,0-2.77-2.49-4.52-2.2-1.57.27-2.44,2.31-4.46,2.3.37-1.75,1.94-3.42,1.16-4.92-.7-1.34-2.47-2.12-4.09-3.41,2.14-.16,4.25.26,5.48-.59S65.14,93.29,65.75,91.74Z"/><path class="cls-13" d="M99.78,97.08c4.2.36,6.87-.94,6.83-6.07,1.59,1.92,1.13,4.42,2.56,5.23s3.37.41,5.94.62c-4,2-6.21,4.25-3.41,8.68-3.35-3.67-6.24-2.71-9.43.54.44-2.7,2-4.37,1.25-5.87C102.82,98.88,101.07,98.1,99.78,97.08Z"/><path class="cls-13" d="M82.08,54.18c1.72-3.77,1.52-6.82-3.37-8.38a4.3,4.3,0,0,1,3.39-.56c2,.28,3-.53,3.3-2.45A17.74,17.74,0,0,1,86.34,40c.16.08.34.11.35.18.69,3.91,2.49,6.33,7.13,5.35-1.34,1.15-3.37,2.08-3.83,3.51s.71,3.29,1.25,5.31C89.44,53.2,88,51.5,86.49,51.5S83.55,53.22,82.08,54.18Z"/><path class="cls-13" d="M102.57,43.45c1.61-3.62,1.42-6.63-3.4-8.36,4.83.9,7.3-.81,7.88-5.59.67,4.67,2.93,6.58,7.7,5.45-3.81,2.15-5.72,4.72-2.85,8.6-.48.14-.59.2-.62.17-2.82-3-5.65-2.65-8.49,0Z"/><path class="cls-14" d="M86.38,81.16c.7,4.38,2.93,6.32,7.26,5,.37.71,0,.94-.35,1.09-3.37,1.59-4.18,4-2.27,7.21.11.17,0,.46,0,1.3-3-3.58-6-4-8.73-.27-.25-.37-.4-.48-.39-.58.18-1.74,1.85-3.46,1.09-5-.68-1.35-2.51-2.11-4.19-3.41,2.19-.15,4.41.31,5.62-.58S85.78,82.81,86.38,81.16Z"/><path class="cls-13" d="M40.63,95.62c2.29-4.27,1.53-7.14-2.55-9.15,1.79-.12,4,.36,5.23-.53s1.33-3.14,2.27-5.73c.42,5.14,2.56,7.35,7.07,5.93,0,.4.07.61,0,.69-1.2,1.28-3.46,1.74-3.9,3.38s1.22,3.22,1.13,5.57C46.85,92.13,43.89,91.62,40.63,95.62Z"/><path class="cls-14" d="M58.27,35.07c2.18-.36,4.31.6,5.58-.5,1.1-1,1.3-3,2.22-4.84.53,4.54,2.86,6.33,7.2,5L70,43.84c-2.8-3.31-5.63-3.17-8.49.57-.23-2.51,1.67-4.26.91-5.76S59.89,36.39,58.27,35.07Z"/><path class="cls-14" d="M107.1,70.68c.39,5.09,3.2,6.23,7.37,5.73-1.34,1.09-3.12,1.93-3.9,3.32s1,3.08.89,5c-1.86-.4-2.83-2.57-4.49-2.45s-2.64,2.16-5,2.68c3-4.15,1.52-6.75-2.65-8.76C104,77.12,106.51,75.51,107.1,70.68Z"/><path class="cls-14" d="M20.37,84.81c0-.08-.07-.18,0-.24,1.78-3.68,1.05-6.5-3.26-8.34,4.49.61,7.53-.35,7.64-5.77.71,4.87,3.06,6.71,7.86,5.35-1.48,2-4,2.39-4.33,4.1S29,83.25,29.52,85c-.25,0-.45,0-.51-.07-2.84-3.44-5.75-2.38-8.68-.15Z"/><path class="cls-14" d="M70.24,84.82c-1.42-.89-2.83-2.47-4.25-2.47s-2.82,1.57-5,3C63.27,81,62.85,78,58.08,76.24c4.83,1,7.27-.83,7.84-5.6.72,4.56,2.82,6.68,7.61,5.12a4.76,4.76,0,0,1-2.43,2.37c-1.65,1-2.3,2.07-1.35,3.91a12.61,12.61,0,0,1,.69,2.55A2.2,2.2,0,0,0,70.24,84.82Z"/><path class="cls-14" d="M94.18,24.79c-4.1,2-5.54,4.67-2.58,8.74h-.76c-1.42-.94-2.85-2.63-4.26-2.61S83.64,32.59,81.37,34c2.43-4.3,2.11-7.3-2.31-8.67.21-.37.31-.61.35-.6,4.29.81,6.62-1,7.09-5.66C87.07,23.76,89.27,25.86,94.18,24.79Z"/><path class="cls-14" d="M40.69,74.94c2.23-4.15,1.49-7-3-9,4.91,1,7.19-1,7.6-5.75.82,4.3,2.52,7.06,7.72,5.66-3.93,2.09-5.59,4.65-2.78,8.4-.49.17-.69.29-.74.25C46.64,71.79,43.83,71.2,40.69,74.94Z"/><path class="cls-14" d="M111.43,23.27c-3-2.81-5.94-3.54-8.69.38-.23-.37-.37-.49-.35-.58.3-1.73,1.86-3.46,1.17-5-.6-1.34-2.42-2.13-3.88-3.56,4.44.94,6.87-.64,6.94-5.55,1.58,1.77,1.2,3.94,2.4,5,1.37,1.24,3.41.11,5.1.6,0,.14.06.39,0,.41-4.25,1.69-3.63,5-2.74,8.34Z"/><path class="cls-14" d="M94,66c-1.61,1.31-3.65,2.18-4.1,3.57s.73,3.28,1.07,5.35c-3-3.64-6-3.49-9.12-.41.45-1.68,1.6-3.58,1.15-5s-2.49-2.25-4-3.73c4.75,1.2,6.91-.95,7.63-5.22.59,1.65.76,3.74,1.89,4.85S91.92,65.59,94,66Z"/><path class="cls-14" d="M114.25,56c-1.28,1-3,1.85-3.71,3.19s1.11,3.08.82,5.07c-1.53-.93-2.91-2.37-4.42-2.52s-2.47,2.17-4.79,2.24c2.63-3.73,1.45-6.27-2.63-8.19,4.62.8,7-1,7.48-5.64C107.82,54.46,109.71,56.89,114.25,56Z"/><path class="cls-14" d="M61.65,64.61c-.63-1.18.09-2.24.51-3.17.79-1.76.41-2.85-1.23-3.75a9.56,9.56,0,0,1-2.35-2c4.38.85,6.88-.66,6.9-5.65A5.39,5.39,0,0,1,67,53.17c.37,1.93,1.35,2.76,3.34,2.43a22.49,22.49,0,0,1,3.29,0c-1.78,1.42-3.43,2.2-4.21,3.51s1.1,3.05.74,4.83a2.82,2.82,0,0,1-.81-.09c-1.27-.65-2.29-2.45-3.61-2.09-1.53.42-2.78,1.85-4.14,2.84Z"/><path class="cls-14" d="M61.55,17a34.54,34.54,0,0,1,6.2-3.25c.57,1.47,1.8.56,2.72.72a17,17,0,0,0,2.68,0l-3,8.42c-.13,0-.34.14-.38.1-2.88-3.42-5.58-2-8.25.3l0,.05c-.43-1.34.39-2.43.79-3.57A2.1,2.1,0,0,0,61.55,17Z"/><path class="cls-13" d="M40.7,32.39a55.46,55.46,0,0,1,9.54-7.88l2.55.32c-1.1,1.55-3.31,1.93-3.93,3.44s1,3.25,1.09,5.11c-.34,0-.62,0-.74-.11-2.42-2.35-4.81-3.12-7.42-.18C40.83,34.16,40.76,33.11,40.7,32.39Z"/><path class="cls-15" d="M121.7,90.1h45.68a19.25,19.25,0,0,1,2.13.23c-3.86,0-7.72.13-11.58.13q-18.12,0-36.24,0A.52.52,0,0,1,121.7,90.1Z"/><path class="cls-15" d="M121.69,68l45,.09a3.85,3.85,0,0,1-2.36.3H121.7A.58.58,0,0,1,121.69,68Z"/><path class="cls-14" d="M70.44,84.59c.21.17.29.35,0,.57l-.25-.34A2.2,2.2,0,0,1,70.44,84.59Z"/><path class="cls-14" d="M61.63,64.57h-.21l-.08,0,.31.1Z"/><path class="cls-14" d="M111.4,23.32l.3-.05,0,.19a2.9,2.9,0,0,0-.29-.19Z"/><path class="cls-14" d="M61.55,23.27a1.14,1.14,0,0,1-.16.15s-.08,0-.11,0l.3-.06Z"/><path class="cls-13" d="M102.79,43.68a2.39,2.39,0,0,1-.29.31c-.29-.21-.15-.38.07-.54Z"/><path class="cls-3" d="M13.94,180.81A96.76,96.76,0,0,1,5,158.35l118.35,0q23.47,0,47,0c1.05,0,2.09.07,3.14.11-.4,3.55-.78,7.1-1.21,10.64-.47,3.86-1.56,7.63-1.67,11.55l-.5.16h-5.35c-.64,0-1.28-.08-1.93-.08H15.87C15.22,180.73,14.58,180.78,13.94,180.81Z"/><path class="cls-16" d="M170.57,180.65c.11-3.92,1.2-7.69,1.67-11.55.43-3.54.81-7.09,1.21-10.64l.47-.2c.48,0,1,.12,1.44.12l67.71,0a96.13,96.13,0,0,1-8.95,22.45c-10.55,0-21.11-.08-31.67-.08s-21.27.06-31.91.09Z"/><path class="cls-5" d="M1.46,135.55c.79-.62,1.71-.36,2.58-.36H168.45c.86,0,1.79-.26,2.57.36-.72,0-1.45.1-2.17.1H3.64C2.91,135.65,2.19,135.58,1.46,135.55Z"/><path class="cls-5" d="M172,135.55c.16-.21.32-.21.47,0Z"/><path class="cls-7" d="M164.72,180.81h5.35c-.06.56-.08,1.12-.18,1.67-1.24,7-3.3,13.72-5.15,20.52,0,.14,0,.27,0,.4a2.51,2.51,0,0,0-.46.16l-4.85-.16c-.78-.63-1.71-.37-2.57-.37q-62.38,0-124.76,0c-.87,0-1.79-.25-2.57.4a.53.53,0,0,1-.39.06A96.21,96.21,0,0,1,14.47,181.8c.91-1,2.12-.57,3.2-.57q72,0,144,0C162.7,181.2,163.79,181.54,164.72,180.81Z"/><path class="cls-3" d="M159.39,203.4l4.85.16c-.13.62-.22,1.26-.41,1.86a101,101,0,0,1-7.26,17.35,5.56,5.56,0,0,0-1,2.92l-.48.19-.48,0-4.85,0c-.56,0-1.13-.08-1.69-.08H55.53c-.64,0-1.28.09-1.92.13A106.94,106.94,0,0,1,29.1,203.49a.53.53,0,0,0,.39-.06c.57,0,1.13.07,1.69.07H157.46C158.11,203.5,158.75,203.43,159.39,203.4Z"/><path class="cls-4" d="M164.72,180.81c-.93.73-2,.39-3,.39q-72,0-144,0c-1.08,0-2.29-.44-3.2.57-.18-.33-.36-.66-.53-1,.64,0,1.28-.08,1.93-.08H162.79C163.44,180.73,164.08,180.78,164.72,180.81Z"/><path class="cls-10" d="M53.61,225.92c.64,0,1.28-.13,1.92-.13H148c.56,0,1.13.05,1.69.08-.86.68-1.87.38-2.81.38q-44.57,0-89.15,0c-1,0-2.11-.38-3,.45Z"/><path class="cls-9" d="M164.74,203c1.85-6.8,3.91-13.56,5.15-20.52.1-.55.12-1.11.18-1.67l.5-.16,0,.17c.86.67,1.87.38,2.81.38q28.65,0,57.3,0c1,0,2.12-.41,2.95.57A95.57,95.57,0,0,1,219,203.5a.64.64,0,0,1-.41-.07c-.85-.69-1.86-.4-2.8-.4Q190.26,203,164.74,203Z"/><path class="cls-16" d="M218.57,203.43a.64.64,0,0,0,.41.07c-5.34,7-11.83,12.8-18.66,18.26-1.87,1.49-3.9,2.78-5.86,4.16-1,0-1.93-.13-2.89-.14l-36-.09a5.56,5.56,0,0,1,1-2.92,101,101,0,0,0,7.26-17.35c.19-.6.28-1.24.41-1.86a2.51,2.51,0,0,1,.46-.16Z"/><path class="cls-4" d="M233.6,181.8c-.83-1-2-.57-2.95-.57q-28.65,0-57.3,0c-.94,0-1.95.29-2.81-.38,10.64,0,21.28-.09,31.91-.09s21.12.05,31.67.08Z"/><path class="cls-10" d="M155.52,225.69l36,.09c1,0,1.92.09,2.89.14l-1.13.8c-.82-.77-1.85-.43-2.78-.44-10.9,0-21.8,0-32.7,0-.94,0-1.94.29-2.81-.38Z"/><path class="cls-15" d="M173.43,90.38c-.15-5.77-1.26-11.42-2.11-17.11-.26-1.73-.52-3.47-.79-5.2L208,68l26.38-.1a88.88,88.88,0,0,1,8.79,22.62l-68.56,0a4.51,4.51,0,0,0-.72.12Z"/><path class="cls-6" d="M234.42,67.88,208,68l-37.51.09-.46-.26c-.37-5.2-1.92-10.15-3.22-15.15-.65-2.46-1.41-4.9-2.12-7.35,1-.05,1.92-.13,2.88-.13q25.94,0,51.87,0A97.44,97.44,0,0,1,234.42,67.88Z"/><path class="cls-16" d="M219.48,45.15q-25.93,0-51.87,0c-1,0-1.92.08-2.88.13l-.47-.17c-.67-4.91-2.86-9.31-4.73-13.8-1.19-2.88-2.66-5.65-4-8.47l36.86-.08c1,0,1.92-.06,2.88-.09A107.9,107.9,0,0,1,219.48,45.15Z"/><path class="cls-10" d="M159.39,203.4c-.64,0-1.28.1-1.93.1H31.18c-.56,0-1.12-.05-1.69-.07.78-.65,1.7-.4,2.57-.4q62.39,0,124.76,0C157.68,203,158.61,202.77,159.39,203.4Z"/><path class="cls-10" d="M218.57,203.43l-53.87,0c0-.13,0-.26,0-.4q25.51,0,51,0C216.71,203,217.72,202.74,218.57,203.43Z"/><path class="cls-14" d="M8.15,90.33C7.86,92,9,93.91,9.52,95.78c-.27,0-.48,0-.54-.08C7.11,93.44,5.21,93,3.3,93.54a50.9,50.9,0,0,1,2.86-8.67c1.38,1.58,3.53,1.95,6.63,1.07C11.2,88.13,8.47,88.5,8.15,90.33Z"/></g></g></svg>