<svg xmlns="http://www.w3.org/2000/svg" viewBox="0 0 49 66.94"><defs><style>.cls-1{fill:#005fb8;}.cls-2{fill:#0072dd;}.cls-3{fill:#148cfb;}</style></defs><title>icon</title><g id="Layer_2" data-name="Layer 2"><g id="Layer_1-2" data-name="Layer 1"><path class="cls-1" d="M24.4,66.94a.12.12,0,0,0,0-.15l-.43-.3-7-4.7-.47-.34c-.07-.06-.05-.14,0-.21.62-.44,1.24-.87,1.84-1.33l5.62-4.21a1.79,1.79,0,0,1,.61-.32l.6.46,6.92,5.29a1.48,1.48,0,0,0,.4.23c-.1.23-.32.33-.51.46l-6.5,4.62-.47.35c-.05,0,0,.1,0,.15Z"/><path class="cls-2" d="M0,49c0-.22,0-.43,0-.64V17.64c0-.72,0-.6.51-1l10-7.14c.18-.14.38-.26.57-.39l.27,0c0,.22,0,.43,0,.64V40.26c0,.23,0,.46,0,.69a4.26,4.26,0,0,0-1,.65c-.82.59-1.62,1.2-2.44,1.79-1.28.94-2.58,1.86-3.87,2.79L.44,48.79A1,1,0,0,1,0,49Z"/><path class="cls-2" d="M37.72,40.84c0-.24,0-.47,0-.7q0-15.18,0-30.35a1.52,1.52,0,0,1,.06-.73c.31,0,.47.22.68.37q4.81,3.42,9.62,6.87l.33.23c.72.52.59.39.59,1.13V48.18c0,.23,0,.47,0,.7a1.33,1.33,0,0,1-.61-.32L45.14,46.2l-3.66-2.66-3.56-2.61A1.21,1.21,0,0,0,37.72,40.84Z"/><path class="cls-3" d="M24.53.06c.14.09.3.17.44.27L32,5.08l.09.07c.51.33.42.27.42.79v31c0,.14,0,.27,0,.41-.31,0-.5-.19-.72-.35l-3.12-2.4c-1.05-.8-2.08-1.6-3.13-2.39a7.51,7.51,0,0,0-1.13-.81c0-.29,0-.58,0-.87V.45A.62.62,0,0,1,24.53.06Z"/><path class="cls-2" d="M24.53.06a.62.62,0,0,0-.12.39V30.51c0,.29,0,.58,0,.87L19.74,34.9c-1,.77-2.1,1.52-3.11,2.33a1,1,0,0,1-.26.11c0-.21,0-.42,0-.63V6.07c0-.77-.09-.59.54-1L24,.26,24.38,0A.11.11,0,0,1,24.53.06Z"/><path class="cls-1" d="M16.37,37.34a1,1,0,0,0,.26-.11c1-.81,2.07-1.56,3.11-2.33l4.68-3.52a7.51,7.51,0,0,1,1.13.81c1.05.79,2.08,1.59,3.13,2.39L31.8,37c.22.16.41.37.72.35a.2.2,0,0,1-.09.2l-.37.27-6.84,4.86c-.61.43-.47.43-1.1,0L16.6,37.58C16.5,37.52,16.38,37.49,16.37,37.34Z"/><path class="cls-1" d="M37.72,40.84a1.21,1.21,0,0,1,.2.09l3.56,2.61,3.66,2.66,3.22,2.36a1.33,1.33,0,0,0,.61.32.24.24,0,0,1,0,.27c-.11.1-.24.19-.36.28l-10.3,7.32c-.15.11-.31.33-.49.25s-.11-.38-.11-.57v-15A1.67,1.67,0,0,1,37.72,40.84Z"/><path class="cls-1" d="M0,49a1,1,0,0,0,.41-.22L4,46.18c1.29-.93,2.59-1.85,3.87-2.79.82-.59,1.62-1.2,2.44-1.79a4.26,4.26,0,0,1,1-.65c0,.22,0,.43,0,.64V56.37c0,.22.09.46-.11.65-.23,0-.37-.19-.54-.31Q5.59,53.08.48,49.43C.31,49.31.08,49.25,0,49Z"/><path class="cls-3" d="M32.46,61.36a1.48,1.48,0,0,1-.4-.23l-6.92-5.29-.6-.46c0-.27,0-.54,0-.82V46.19c.21,0,.31.14.44.24l3.95,3.17c1.12.89,2.23,1.8,3.36,2.68a.91.91,0,0,1,.37.79c0,2.58,0,5.16,0,7.74,0,.13,0,.27,0,.4S32.54,61.34,32.46,61.36Z"/><path class="cls-2" d="M24.52,46.19v8.37c0,.28,0,.55,0,.82a1.79,1.79,0,0,0-.61.32l-5.62,4.21c-.6.46-1.22.89-1.84,1.33,0-.2,0-.39,0-.58v-7.5a1.76,1.76,0,0,0,0-.23.62.62,0,0,1,.29-.59l4.08-3.27,3.31-2.65C24.25,46.33,24.35,46.19,24.52,46.19Z"/></g></g></svg>