<svg xmlns="http://www.w3.org/2000/svg" viewBox="0 0 247.26 66.94"><defs><style>.cls-1{fill:#0e82ee;}.cls-2{fill:#005fb8;}.cls-3{fill:#0072dd;}.cls-4{fill:#148cfb;}.cls-5{fill:#087be7;}</style></defs><title>Logo</title><g id="Layer_2" data-name="Layer 2"><g id="Layer_1-2" data-name="Layer 1"><path class="cls-1" d="M240.05,24.77l-.07-.1a.1.1,0,0,0,.09,0,.06.06,0,0,0,0-.09v-.12a.57.57,0,0,1,.56.49,10.86,10.86,0,0,1,.39,1.46c.05.4.13.46.51.49h4.75a.49.49,0,0,0,.5-.4,2,2,0,0,0,.06-.34,1.88,1.88,0,0,1,.24-.77h.22v1s-.11.06-.13.1a1,1,0,0,0,0,.87s.1.06.14.08v.24c-.22,0-.3.12-.35.3-.12.37-.23.74-.34,1.11a5.22,5.22,0,0,1-.69,1.4,8.37,8.37,0,0,1-2,2.08.32.32,0,0,0-.35.23h0A1.39,1.39,0,0,0,243,33c-.4.18-.81.38-1.23.53a7.13,7.13,0,0,1-2.55.48,3.05,3.05,0,0,0-.52.05,3.17,3.17,0,0,1-.75.06c-1,0-1.9,0-2.85,0a4.27,4.27,0,0,0-2.07.52,2.05,2.05,0,0,1-1.11.29h-1.28c-2.89,0-5.78,0-8.67,0a1.44,1.44,0,0,1-1.51-.85.67.67,0,0,0-.43-.44v-.23c.05-.2,0-.2-.2-.24l0-2a5.19,5.19,0,0,1,.19-1.61,1.54,1.54,0,0,1,1-1.07,3.79,3.79,0,0,1,1.16-.12h14.27c.12.11.19.05.23-.08l.58,0a7.27,7.27,0,0,0,1.61-.23,1.37,1.37,0,0,0,.66-.35l.54-.54a1.12,1.12,0,0,0,.34-.78c0-.35,0-.7,0-1A.52.52,0,0,0,240.05,24.77Z"/><path class="cls-2" d="M24.4,66.94a.12.12,0,0,0,0-.15l-.43-.3-7-4.7-.47-.34c-.07-.06-.05-.14,0-.21.62-.44,1.24-.87,1.84-1.33l5.62-4.21a1.79,1.79,0,0,1,.61-.32l.6.46,6.92,5.29a1.48,1.48,0,0,0,.4.23c-.1.23-.32.33-.51.46l-6.5,4.62-.47.35c-.05,0,0,.1,0,.15Z"/><path class="cls-3" d="M243.89,32.57a8.37,8.37,0,0,0,2-2.08,5.22,5.22,0,0,0,.69-1.4c.11-.37.22-.74.34-1.11.05-.18.13-.32.35-.3v.58s0-.12-.11-.06-.1.16-.13.25c-.12.37-.23.74-.38,1.1a7.49,7.49,0,0,1-1.94,2.66,10.84,10.84,0,0,1-3,1.83,4.46,4.46,0,0,1-1.08.25,21.62,21.62,0,0,1-2.54.25c-.82,0-1.63.08-2.45.07a5.23,5.23,0,0,0-2.21.41.59.59,0,0,1,.42-.38,2.78,2.78,0,0,1,1-.2c.81,0,1.62,0,2.43-.1s1.46,0,2.19-.12a14.9,14.9,0,0,0,2-.33,3.44,3.44,0,0,0,.76-.27l.93-.47a1.05,1.05,0,0,0,.46-.35h0A.47.47,0,0,0,243.89,32.57Z"/><path class="cls-3" d="M247.26,25.35H247a8.16,8.16,0,0,0-.19-1.84,4.31,4.31,0,0,0-.55-1.45,1.4,1.4,0,0,1-.2-.89,5.79,5.79,0,0,1,.87,1.76,2.35,2.35,0,0,0,.14.37c0,.08.13.06.15,0Z"/><path class="cls-3" d="M247.26,27.44s-.12,0-.14-.08a1,1,0,0,1,0-.87s.09-.06.13-.1Z"/><path class="cls-3" d="M0,49c0-.22,0-.43,0-.64V17.64c0-.72,0-.6.51-1l10-7.14c.18-.14.38-.26.57-.39l.27,0c0,.22,0,.43,0,.64V40.26c0,.23,0,.46,0,.69a4.26,4.26,0,0,0-1,.65c-.82.59-1.62,1.2-2.44,1.79-1.28.94-2.58,1.86-3.87,2.79L.44,48.79A1,1,0,0,1,0,49Z"/><path class="cls-3" d="M37.72,40.84c0-.24,0-.47,0-.7q0-15.18,0-30.35a1.52,1.52,0,0,1,.06-.73c.31,0,.47.22.68.37q4.81,3.42,9.62,6.87l.33.23c.72.52.59.39.59,1.13V48.18c0,.23,0,.47,0,.7a1.33,1.33,0,0,1-.61-.32L45.14,46.2l-3.66-2.66-3.56-2.61A1.21,1.21,0,0,0,37.72,40.84Z"/><path class="cls-3" d="M176.91,28a1.63,1.63,0,0,0,.58.08h27.72a5.29,5.29,0,0,1,1,.06,1.75,1.75,0,0,1,1.46,1.25,1.4,1.4,0,0,1,.07.4c0,1,0,1.94,0,2.91a1.91,1.91,0,0,1-.1.52,1.75,1.75,0,0,1-1.41,1.24,4.35,4.35,0,0,1-.52.06h-28.6a.22.22,0,0,0-.22.22c0,.15,0,.31,0,.46q0,3.36,0,6.7c0,.66,0,.66.63.67h27.61c.27,0,.54,0,.82,0a1.81,1.81,0,0,1,1.8,1.78c0,.95,0,1.9,0,2.85a1.79,1.79,0,0,1-1.71,1.8l-.58,0H172.86a3.61,3.61,0,0,1-1.26-.19,1.51,1.51,0,0,1-1.09-1.55c0-1.4,0-2.8,0-4.2q0-11,0-22c0-.68,0-1.36,0-2,0-.09,0-.19,0-.29A1.87,1.87,0,0,1,172.36,17a4.51,4.51,0,0,1,.52,0h32.56a3.32,3.32,0,0,1,1,.11,1.55,1.55,0,0,1,1.14,1.05l-.2,0-.26-.31a1.15,1.15,0,0,0-.74-.41,9.06,9.06,0,0,0-1.27-.1h-33c-.27.05-.54.08-.7.34a.55.55,0,0,0-.28.28,3.12,3.12,0,0,0-.31,1.11.92.92,0,0,0-.11.56v4.48a.92.92,0,0,0,.11.56v7a1.84,1.84,0,0,0,0,.41,5.44,5.44,0,0,1,.09,1.27v1.58a1.85,1.85,0,0,0,.32,1.27.6.6,0,0,0,.54.36h3.67a3.44,3.44,0,0,0,.46,0,.37.37,0,0,0,.34-.29,4.81,4.81,0,0,0,.27-1.18.66.66,0,0,1,.26-.56,1,1,0,0,1,.64-.26H206a1.36,1.36,0,0,0,.56-.14,1.66,1.66,0,0,0,1-1.54c0-.85,0-1.71,0-2.56A1.47,1.47,0,0,0,206,28.49h-28.3a1.89,1.89,0,0,1-.57-.13A.39.39,0,0,1,176.91,28Z"/><path class="cls-1" d="M60.35,24.76l0,.36-.09.22c-.15.33-.14.35.18.47l0,.24c-.07,0-.17.07-.16.15,0,.34.06.69.4.89a.37.37,0,0,0,.24.12l.23.25a.56.56,0,0,0,.42.47l.75.23c0,.12.1.19.24.09l.46,0c.21.26.25.27.59.1H81.48c.27.14.3.14.47-.1l.58,0c.14.1.2,0,.24-.09a3.19,3.19,0,0,0,1-.26.27.27,0,0,0,.25-.23,1.18,1.18,0,0,1,.31-.42,1.06,1.06,0,0,0,.3-.48,2.87,2.87,0,0,0,.23-1.08c.21-.13.21-.13.09-.35l0-.7a.42.42,0,0,1,.39.29,1.47,1.47,0,0,1,.08.28.45.45,0,0,0,.47.36h4.23a.52.52,0,0,0,.39-.22,1.19,1.19,0,0,0,.25-.81c0-1.26,0-2.51,0-3.77,0-.16,0-.31,0-.46A.35.35,0,0,1,91,20c0,.24,0,.47,0,.7q0,6.87,0,13.75c0,.19,0,.39,0,.58-.19.09-.21.26-.21.44,0,.43,0,.86,0,1.28a4.42,4.42,0,0,1-.16,1.21,1.75,1.75,0,0,0-.12.85.35.35,0,0,1-.33.4,2.82,2.82,0,0,1-.41,0H86.24a2.68,2.68,0,0,1-.4,0c-.21,0-.36-.16-.32-.34a1.24,1.24,0,0,0-.21-.88,1.24,1.24,0,0,1-.09-.39,11.28,11.28,0,0,0-.34-1.53,2.08,2.08,0,0,0-1.11-1.28,4.33,4.33,0,0,0-1.91-.45H63.54a5.56,5.56,0,0,0-.81.08c-.48.07-.93.27-1.4.38a.24.24,0,0,0-.27,0,2.36,2.36,0,0,0-.8.74,1.14,1.14,0,0,1-1.11.56c-.79,0-1.58,0-2.37,0H55.21a.61.61,0,0,1-.57-.31l-.21-.35a.35.35,0,0,0-.29-.15l0-3a4.55,4.55,0,0,1,.07-1,1.08,1.08,0,0,0,0-.4,4.61,4.61,0,0,1-.06-1c0-1.41,0-2.83,0-4.24,0-.23,0-.46,0-.69a.74.74,0,0,1,.26.1.52.52,0,0,1,.18.35.57.57,0,0,0,.63.48h4.07a.5.5,0,0,0,.53-.43c0-.08,0-.16.05-.23A.44.44,0,0,1,60.35,24.76Z"/><path class="cls-4" d="M246.1,21.16a1.4,1.4,0,0,0,.2.89,4.31,4.31,0,0,1,.55,1.45,8.16,8.16,0,0,1,.19,1.84,1.88,1.88,0,0,0-.24.77,2,2,0,0,1-.06.34.49.49,0,0,1-.5.4h-4.75c-.38,0-.46-.09-.51-.49a10.86,10.86,0,0,0-.39-1.46.57.57,0,0,0-.56-.49l-.23-.23a.46.46,0,0,0-.3-.45,4.67,4.67,0,0,0-2.45-.61h-17l-.52,0a.3.3,0,0,0-.26.2l-.35,0c-.21-.14-.21-.14-.35.07l-.22,0h-.28a.3.3,0,0,0-.32.32l-.11.05c-.23-.12-.28-.11-.34.11a.34.34,0,0,0,0,.1.43.43,0,0,1-.23.23.44.44,0,0,0-.42.25,3.84,3.84,0,0,0-.36,1.05c0,.06,0,.14.07.21v.35a.29.29,0,0,0-.2.26c0,.39-.14.76-.14,1.15,0,.68-.14.8-.83.8H211.5a2.69,2.69,0,0,1-.4,0,.33.33,0,0,1-.26-.21,2.85,2.85,0,0,1-.11-.39,8.35,8.35,0,0,1-.16-1.32c0-.2,0-.39-.22-.5,0-2.21,0-4.42,0-6.63a3.22,3.22,0,0,1,.15-.92,1.12,1.12,0,0,1,.64-.78,4.66,4.66,0,0,1,1.74-.4q12.48,0,25,0a15.41,15.41,0,0,1,3,.26,6,6,0,0,1,2.07.73,1.82,1.82,0,0,0,1,.41.21.21,0,0,1,.17.13.49.49,0,0,0,.54.45,1.66,1.66,0,0,1,.5.52.36.36,0,0,0,.34.41.25.25,0,0,1,.12.16.26.26,0,0,0,.22.31.07.07,0,0,1,.05.07.23.23,0,0,0,.18.28A.33.33,0,0,1,246.1,21.16Z"/><path class="cls-4" d="M24.53.06c.14.09.3.17.44.27L32,5.08l.09.07c.51.33.42.27.42.79v31c0,.14,0,.27,0,.41-.31,0-.5-.19-.72-.35l-3.12-2.4c-1.05-.8-2.08-1.6-3.13-2.39a7.51,7.51,0,0,0-1.13-.81c0-.29,0-.58,0-.87V.45A.62.62,0,0,1,24.53.06Z"/><path class="cls-3" d="M24.53.06a.62.62,0,0,0-.12.39V30.51c0,.29,0,.58,0,.87L19.74,34.9c-1,.77-2.1,1.52-3.11,2.33a1,1,0,0,1-.26.11c0-.21,0-.42,0-.63V6.07c0-.77-.09-.59.54-1L24,.26,24.38,0A.11.11,0,0,1,24.53.06Z"/><path class="cls-1" d="M168.12,24l0,.24c-.13.25-.19.49.09.69a7.4,7.4,0,0,1,0,1.63c-.19.09-.17.27-.2.45a6.83,6.83,0,0,1-.79,2.79,1,1,0,0,0-.13.61h0c-.29.08-.34.32-.36.57h0a.41.41,0,0,0-.35.46h0c-.3.05-.45.29-.64.48a8,8,0,0,1-4.4,2.21c-.42.08-.85.07-1.27.14a8.93,8.93,0,0,1-1.27.08H144.28a14.64,14.64,0,0,1-2.09-.11,1.45,1.45,0,0,1-.81-.4,1.78,1.78,0,0,1-.47-1.05c0-.15,0-.31,0-.46a7.22,7.22,0,0,1,0-2.54,1.57,1.57,0,0,1,1.2-1.27,5,5,0,0,1,1.16-.11h12.39a22.6,22.6,0,0,0,3.08-.11A6.59,6.59,0,0,0,160,28a2.49,2.49,0,0,0,1.16-.94,1.14,1.14,0,0,0,.26-.64,7.22,7.22,0,0,0,0-1,.74.74,0,0,0-.44-.7,3.39,3.39,0,0,0-1.18-.87.43.43,0,0,0-.57-.2.86.86,0,0,1-.47-.08.2.2,0,0,0-.34,0l-1.92,0h-15c-.43,0-.85,0-1.28,0-.08-.08-.15-.07-.22,0l-.67.17a3.42,3.42,0,0,0-.75.29,1.41,1.41,0,0,0-.65.71c-.12.3-.23.61-.34.92a.2.2,0,0,0-.05.34,11.06,11.06,0,0,1,0,1.41.29.29,0,0,0-.18.27c0,.17,0,.35,0,.52,0,2,0,4.05,0,6.08a.41.41,0,0,0-.24.3.56.56,0,0,1-.58.4h-3.64a3.23,3.23,0,0,1-1.47-.24V29.32a9.38,9.38,0,0,0-.1-1.91,1.86,1.86,0,0,1,0-.41q0-3.86,0-7.73a3.56,3.56,0,0,1,0-.57.52.52,0,0,1,.3-.47,4.44,4.44,0,0,0-.11,1.09c0,1.4,0,2.8,0,4.19a4.69,4.69,0,0,0,0,.53c.07.65.28.84.93.84h4.25a.73.73,0,0,0,.74-.46l.06-.1a1.39,1.39,0,0,1,.85-.74,6.91,6.91,0,0,1,2.5-.45,1.83,1.83,0,0,0,.47,0,3.53,3.53,0,0,1,.86-.07h13.62a2.24,2.24,0,0,1,.52,0,5.87,5.87,0,0,0,1.45.09,7.63,7.63,0,0,1,2,.29,3,3,0,0,1,.9.39,2.44,2.44,0,0,1,1.1,1.38c.16.56.21.61.79.62h4.31a2.81,2.81,0,0,0,.41,0c.36,0,.54-.18.55-.54a5.4,5.4,0,0,0,0-1.39.55.55,0,0,1,.05-.5.59.59,0,0,1,.12.31A.34.34,0,0,0,168.12,24Z"/><path class="cls-1" d="M176.91,28a.39.39,0,0,0,.26.35,1.89,1.89,0,0,0,.57.13H206A1.47,1.47,0,0,1,207.53,30c0,.85,0,1.71,0,2.56a1.66,1.66,0,0,1-1,1.54,1.36,1.36,0,0,1-.56.14H177.46a1,1,0,0,0-.64.26.66.66,0,0,0-.26.56,4.81,4.81,0,0,1-.27,1.18.37.37,0,0,1-.34.29,3.44,3.44,0,0,1-.46,0h-3.67a.6.6,0,0,1-.54-.36,1.85,1.85,0,0,1-.32-1.27V33.31a5.44,5.44,0,0,0-.09-1.27,1.84,1.84,0,0,1,0-.41V25.11a.34.34,0,0,1,.23.25.77.77,0,0,0,.89.57h3.65c.52,0,.71-.18.85-.7a2.63,2.63,0,0,0,.09-.74c0-.19,0-.39,0-.58a.35.35,0,0,1,.22-.31.75.75,0,0,0,.11.46c0,.29,0,.58,0,.87C176.92,26,176.92,27,176.91,28Z"/><path class="cls-1" d="M118.55,29.92a3.79,3.79,0,0,1-.71.79.53.53,0,0,0-.48.55,1.44,1.44,0,0,1-.45.5.69.69,0,0,0-.59.68.15.15,0,0,1-.11.13c-.34.06-.51.34-.72.56s-.34.41-.51.61a2.27,2.27,0,0,0-.27.44,10.87,10.87,0,0,0-.49,1.53.53.53,0,0,0-.48.44.32.32,0,0,1-.34.26h-4.29l-.35,0c-.08,0-.16-.06-.16-.14a1.19,1.19,0,0,0-.66-.89,2.88,2.88,0,0,0-.83-1.72c-.08-.11-.2-.09-.31,0a18.91,18.91,0,0,1-1.3-1.54.59.59,0,0,0-.17-.47,16.76,16.76,0,0,0-1.18-1.35,2.83,2.83,0,0,1-.24-.25c-.49-.57-1-1.14-1.49-1.69s-1.18-1.28-1.78-1.91l-.07-.09A10.89,10.89,0,0,0,99.39,25a.64.64,0,0,0-.43-.27h0a.8.8,0,0,0-.3-.59,14.52,14.52,0,0,1-1.23-1.49c.37-.05.57.2.76.45a1.31,1.31,0,0,0,.57.47,1.12,1.12,0,0,1,.49.4,1.47,1.47,0,0,0,1.34.65c1.93,0,3.87,0,5.81,0h.35c.29,0,.35-.12.19-.35s-.33-.48-.47-.74a2.51,2.51,0,0,0-.42-.62.69.69,0,0,1-.18-.64,1.92,1.92,0,0,1,.22.18c.33.45.75.84,1.12,1.26s.72.86,1.1,1.28a7.75,7.75,0,0,0,1.48,1.38,2.11,2.11,0,0,0,2.26.2,4.4,4.4,0,0,0,.56-.31,8.06,8.06,0,0,0,1.49-1.37c.52-.6,1-1.23,1.52-1.84.1-.11.23-.2.35-.31a1,1,0,0,1-.15.61c-.19.31-.35.65-.56.95a.26.26,0,0,0,.19.43h6.33a1.21,1.21,0,0,0,.94-.39c.5-.55,1.13-.95,1.62-1.5a.8.8,0,0,1,.17-.15,6.32,6.32,0,0,0,1.34-1.29c.66-.81,1.49-1.47,2.1-2.32a.4.4,0,0,1,.35-.18,2.62,2.62,0,0,1-.53.75c-.46.52-.94,1-1.41,1.55l-7.13,8a1.92,1.92,0,0,1-.45.45A.27.27,0,0,0,118.55,29.92Z"/><path class="cls-5" d="M243.54,32.8a1.05,1.05,0,0,1-.46.35l-.93.47a3.44,3.44,0,0,1-.76.27,14.9,14.9,0,0,1-2,.33c-.73.09-1.46,0-2.19.12s-1.62.08-2.43.1a2.78,2.78,0,0,0-1,.2.59.59,0,0,0-.42.38l-.36.34a.43.43,0,0,0-.33.43,1.87,1.87,0,0,0,.17,1,5.08,5.08,0,0,0,1,1.34c.36.35.77.65,1.16,1s.5.43.76.63.69.61,1.05.92c.75.64,1.5,1.28,2.19,2a4.53,4.53,0,0,0,.62.54,2.72,2.72,0,0,1,.61.61.2.2,0,0,1-.15.34,3.54,3.54,0,0,1-.46,0H232a.71.71,0,0,1-.53-.2,2.66,2.66,0,0,0-.8-.57,2.47,2.47,0,0,1-.42-.3c-.12-.1-.23-.21-.36-.3l-1.45-1.06-.51-.39L225.14,39l-2.43-2-.8-.67c-.12-.09-.22-.06-.27.09a4.31,4.31,0,0,1-1.26-1.22c.06,0,.14-.11.1-.18-.12-.23-.15-.54-.44-.67l0-.24c.12-.16,0-.31,0-.46a.67.67,0,0,1,.43.44,1.44,1.44,0,0,0,1.51.85c2.89,0,5.78,0,8.67,0h1.28a2.05,2.05,0,0,0,1.11-.29,4.27,4.27,0,0,1,2.07-.52c.95,0,1.9,0,2.85,0a3.17,3.17,0,0,0,.75-.06,3.05,3.05,0,0,1,.52-.05,7.13,7.13,0,0,0,2.55-.48c.42-.15.83-.35,1.23-.53A1.39,1.39,0,0,1,243.54,32.8Z"/><path class="cls-2" d="M16.37,37.34a1,1,0,0,0,.26-.11c1-.81,2.07-1.56,3.11-2.33l4.68-3.52a7.51,7.51,0,0,1,1.13.81c1.05.79,2.08,1.59,3.13,2.39L31.8,37c.22.16.41.37.72.35a.2.2,0,0,1-.09.2l-.37.27-6.84,4.86c-.61.43-.47.43-1.1,0L16.6,37.58C16.5,37.52,16.38,37.49,16.37,37.34Z"/><path class="cls-2" d="M37.72,40.84a1.21,1.21,0,0,1,.2.09l3.56,2.61,3.66,2.66,3.22,2.36a1.33,1.33,0,0,0,.61.32.24.24,0,0,1,0,.27c-.11.1-.24.19-.36.28l-10.3,7.32c-.15.11-.31.33-.49.25s-.11-.38-.11-.57v-15A1.67,1.67,0,0,1,37.72,40.84Z"/><path class="cls-2" d="M0,49a1,1,0,0,0,.41-.22L4,46.18c1.29-.93,2.59-1.85,3.87-2.79.82-.59,1.62-1.2,2.44-1.79a4.26,4.26,0,0,1,1-.65c0,.22,0,.43,0,.64V56.37c0,.22.09.46-.11.65-.23,0-.37-.19-.54-.31Q5.59,53.08.48,49.43C.31,49.31.08,49.25,0,49Z"/><path class="cls-3" d="M216.38,26.16v-.35h.19v.93c-.07,6.58-.06,13.17-.07,19.75,0,.27,0,.54,0,.81A1.82,1.82,0,0,1,215.06,49a3.81,3.81,0,0,1-.75.07h-2a5.53,5.53,0,0,1-.7-.07,1.71,1.71,0,0,1-1.46-1.52,7.15,7.15,0,0,1-.05-.93q0-9.43,0-18.87V19.46a4.85,4.85,0,0,1,.06-.93,1.77,1.77,0,0,1,1.45-1.48,3.53,3.53,0,0,1,.86-.06h26a11.16,11.16,0,0,1,2.82.33,8,8,0,0,1,2.33,1.05c.09.06.2.11.24.23a1.82,1.82,0,0,1-1-.41,6,6,0,0,0-2.07-.73,15.41,15.41,0,0,0-3-.26q-12.48,0-25,0a4.66,4.66,0,0,0-1.74.4,1.12,1.12,0,0,0-.64.78,3.22,3.22,0,0,0-.15.92c0,2.21,0,4.42,0,6.63,0,1,0,2,0,3a1.81,1.81,0,0,0,0,.4,3.65,3.65,0,0,1,.07.87c0,1.81,0,3.61,0,5.41a18.52,18.52,0,0,0,.25,3.07.69.69,0,0,0,.66.62h4.08c.41,0,.62-.23.56-.63a2.35,2.35,0,0,1,0-.75,15.07,15.07,0,0,0,.25-2.6q0-1.83,0-3.66a10.88,10.88,0,0,1,.1-2.21.87.87,0,0,0,0-.23C216.39,28.21,216.38,27.19,216.38,26.16Z"/><path class="cls-4" d="M32.46,61.36a1.48,1.48,0,0,1-.4-.23l-6.92-5.29-.6-.46c0-.27,0-.54,0-.82V46.19c.21,0,.31.14.44.24l3.95,3.17c1.12.89,2.23,1.8,3.36,2.68a.91.91,0,0,1,.37.79c0,2.58,0,5.16,0,7.74,0,.13,0,.27,0,.4S32.54,61.34,32.46,61.36Z"/><path class="cls-3" d="M24.52,46.19v8.37c0,.28,0,.55,0,.82a1.79,1.79,0,0,0-.61.32l-5.62,4.21c-.6.46-1.22.89-1.84,1.33,0-.2,0-.39,0-.58v-7.5a1.76,1.76,0,0,0,0-.23.62.62,0,0,1,.29-.59l4.08-3.27,3.31-2.65C24.25,46.33,24.35,46.19,24.52,46.19Z"/><path class="cls-3" d="M61.33,34.78c.47-.11.92-.31,1.4-.38a5.56,5.56,0,0,1,.81-.08H81.86a4.33,4.33,0,0,1,1.91.45,2.08,2.08,0,0,1,1.11,1.28,11.28,11.28,0,0,1,.34,1.53,1.24,1.24,0,0,0,.09.39,1.24,1.24,0,0,1,.21.88c0,.18.11.32.32.34a2.68,2.68,0,0,0,.4,0h3.55a2.82,2.82,0,0,0,.41,0,.35.35,0,0,0,.33-.4,1.75,1.75,0,0,1,.12-.85,4.42,4.42,0,0,0,.16-1.21c0-.42,0-.85,0-1.28,0-.18,0-.35.21-.44,0,.27,0,.54,0,.81,0,3.21,0,6.43,0,9.64a1.34,1.34,0,0,0,.1.74c0,.33,0,.66,0,1A1.84,1.84,0,0,1,89.4,49a3.55,3.55,0,0,1-.46,0c-.66,0-1.32,0-2,0a3.14,3.14,0,0,1-.81-.08,1.6,1.6,0,0,1-1.28-1.28,4.58,4.58,0,0,1-.09-1v-8.1a9.92,9.92,0,0,0-.13-1.8,4.43,4.43,0,0,0-.3-1,1.74,1.74,0,0,0-.84-.85,5.07,5.07,0,0,0-1.75-.4c-.34,0-.7,0-1,0H64.41a11,11,0,0,0-1.62.1,3.64,3.64,0,0,0-1.82.73c-.08-.12,0-.21.07-.3A3.83,3.83,0,0,0,61.33,34.78Z"/><path class="cls-3" d="M221.64,36.39c.05-.15.15-.18.27-.09l.8.67,2.43,2L228,41.28l.51.39,1.45,1.06c.13.09.24.2.36.3a2.47,2.47,0,0,0,.42.3,2.66,2.66,0,0,1,.8.57.71.71,0,0,0,.53.2h7.63a3.54,3.54,0,0,0,.46,0,.2.2,0,0,0,.15-.34,2.72,2.72,0,0,0-.61-.61,4.53,4.53,0,0,1-.62-.54c-.69-.7-1.44-1.34-2.19-2-.36-.31-.68-.64-1.05-.92s-.51-.42-.76-.63-.8-.62-1.16-1a5.08,5.08,0,0,1-1-1.34,1.87,1.87,0,0,1-.17-1,.43.43,0,0,1,.33-.43,1.59,1.59,0,0,0,.23,1.49,4.84,4.84,0,0,0,.72.84,9.19,9.19,0,0,0,.74.66c1.55,1.17,3,2.46,4.49,3.7,2,1.62,3.9,3.26,5.85,4.9.13.11.27.22.39.34a1.37,1.37,0,0,1,.39.89.63.63,0,0,1-.38.66,1.39,1.39,0,0,1-.56.16l-.93.06c-1.72,0-3.45,0-5.18,0a5.17,5.17,0,0,1-2.57-.65,9.48,9.48,0,0,1-1.48-1l-5.86-4.89-6.84-5.71A1.3,1.3,0,0,1,221.64,36.39Z"/><path class="cls-4" d="M128.29,18.94a.4.4,0,0,0-.35.18c-.61.85-1.44,1.51-2.1,2.32a6.32,6.32,0,0,1-1.34,1.29.8.8,0,0,0-.17.15c-.49.55-1.12.95-1.62,1.5a1.21,1.21,0,0,1-.94.39h-6.33a.26.26,0,0,1-.19-.43c.21-.3.37-.64.56-.95a1,1,0,0,0,.15-.61c.2-.25.39-.53.61-.77.63-.69,1.27-1.36,1.91-2l.12-.13a15.31,15.31,0,0,1,1.51-1.61,1.87,1.87,0,0,1,.55-.42,4.37,4.37,0,0,1,1.9-.5h4.66a3.16,3.16,0,0,1,.75.11.61.61,0,0,1,.48.45.6.6,0,0,0,.2.41A1.5,1.5,0,0,1,128.29,18.94Z"/><path class="cls-3" d="M137.28,34.2c0-2,0-4.05,0-6.08,0-.17,0-.35,0-.52a.29.29,0,0,1,.18-.27c0,.19,0,.38,0,.58q0,9.44,0,18.87a4,4,0,0,1,0,.69A1.77,1.77,0,0,1,135.9,49a15.26,15.26,0,0,1-3.31,0A1.73,1.73,0,0,1,131,47.31c0-.29,0-.59,0-.88q0-11.24,0-22.48V19.18a2.88,2.88,0,0,1,.12-.92,1.77,1.77,0,0,1,1.31-1.2,4.26,4.26,0,0,1,.87-.07h26.15a10.69,10.69,0,0,1,2.76.33,7.49,7.49,0,0,1,2.8,1.38,1.9,1.9,0,0,1,.24.25l0,0-.31,0-.23-.12a.3.3,0,0,0-.24-.23h-.11c-.07-.23-.25-.3-.47-.34a1.17,1.17,0,0,0-.45-.13.59.59,0,0,0-.37-.32,4.66,4.66,0,0,0-.81-.23l-.23,0a.45.45,0,0,0-.36-.1h-.23a.6.6,0,0,0-.47-.11,3.42,3.42,0,0,0-1.15-.12h-26.1a3,3,0,0,0-1.56.34.85.85,0,0,0-.55.69.52.52,0,0,0-.3.47,3.56,3.56,0,0,0,0,.57q0,3.87,0,7.73a1.86,1.86,0,0,0,0,.41,9.38,9.38,0,0,1,.1,1.91v7.55a2.24,2.24,0,0,0,.05.52,4.25,4.25,0,0,1,.06.87c0,1.1,0,2.21,0,3.31a2.08,2.08,0,0,0,.29,1.17.88.88,0,0,1,.18.54c0,.41.18.47.5.47h3.9a.39.39,0,0,0,.37-.31c.06-.23.1-.46.18-.68a5.14,5.14,0,0,0,.29-1.82c0-1.7,0-3.41,0-5.11a3.73,3.73,0,0,1,0-.75A4.24,4.24,0,0,0,137.28,34.2Z"/><path class="cls-4" d="M60.35,24.76a.44.44,0,0,0-.5.38c0,.07,0,.15-.05.23a.5.5,0,0,1-.53.43H55.2a.57.57,0,0,1-.63-.48.52.52,0,0,0-.18-.35.74.74,0,0,0-.26-.1c0-.47,0-.94,0-1.4a.86.86,0,0,0,.12-.56V19.5a.84.84,0,0,0-.12-.56,1.75,1.75,0,0,1,.68-1.3c.18,0,.32,0,.36-.22a2.33,2.33,0,0,1,.78-.22l2.84,0c.07.19.24.23.41.26s.21,0,.28-.15a1.34,1.34,0,0,1,.8,1.14s-.11.06-.12.1.07.12.15.13a.78.78,0,0,1,.07.45c0,1.83,0,3.67,0,5.5C60.37,24.69,60.35,24.72,60.35,24.76Z"/><path class="cls-4" d="M91,20a.35.35,0,0,0-.21.33c0,.15,0,.3,0,.46,0,1.26,0,2.51,0,3.77a1.19,1.19,0,0,1-.25.81.52.52,0,0,1-.39.22H85.94a.45.45,0,0,1-.47-.36,1.47,1.47,0,0,0-.08-.28.42.42,0,0,0-.39-.29c0-1,0-2.09,0-3.13V19.24A2.59,2.59,0,0,1,85.3,18a1,1,0,0,1,.48-.49,3.4,3.4,0,0,1,1.13-.27l2.61,0a.27.27,0,0,0,.27.18l.65,0h0a.37.37,0,0,0,.34.34.16.16,0,0,1,0,.08v.68c0,.13,0,.26,0,.39a.34.34,0,0,0,.21.36Z"/><path class="cls-3" d="M106.8,33.61c.11-.06.23-.08.31,0a2.88,2.88,0,0,1,.83,1.72,8.16,8.16,0,0,1,.23,1.9,1.39,1.39,0,0,0,0,.41,4.45,4.45,0,0,1,.08,1.09c0,.68,0,1.36,0,2,0,.51.13,1,.15,1.5a.65.65,0,0,0,.08.27,2.23,2.23,0,0,1,.26.83.36.36,0,0,0,.34.34h3.78a2.11,2.11,0,0,0,.35,0,.26.26,0,0,0,.26-.26,2.27,2.27,0,0,1,.28-.94.52.52,0,0,0,.07-.27c0-.59.15-1.15.15-1.74a13.48,13.48,0,0,1,.1-2.84c0-.07,0-.15,0-.23a5.4,5.4,0,0,1,.1-1.39,2,2,0,0,0,0-.35,10.87,10.87,0,0,1,.49-1.53,2.27,2.27,0,0,1,.27-.44c.17-.2.33-.42.51-.61s.38-.5.72-.56a4.73,4.73,0,0,1-.76,1,3.53,3.53,0,0,0-.78,1.48,11,11,0,0,0-.33,2.36c0,.42,0,.85,0,1.28q0,4,0,8.09a3.55,3.55,0,0,1-.09.92A1.73,1.73,0,0,1,112.68,49a3.69,3.69,0,0,1-.58,0h-2a4.76,4.76,0,0,1-.75-.07,1.71,1.71,0,0,1-1.45-1.4,3.65,3.65,0,0,1-.07-.87V38.57a18.8,18.8,0,0,0-.13-2.49c0-.31-.1-.62-.17-.92A3.09,3.09,0,0,0,107,33.9,1.38,1.38,0,0,1,106.8,33.61Z"/><path class="cls-3" d="M60.36,37.58c0,.31,0,.62,0,.93,0,1.18,0,2.36,0,3.55,0,.21,0,.42,0,.64-.21.15-.17.37-.17.58v3.64a.84.84,0,0,0,.11.56l-.05.23a.31.31,0,0,0-.17.37.29.29,0,0,1-.13.22.37.37,0,0,0-.34.35,1.21,1.21,0,0,1-.82.34,1,1,0,0,0-.62-.11H55.94a2,2,0,0,1-.9-.19,1.27,1.27,0,0,1-.79-.95,12.48,12.48,0,0,1-.14-1.5c0-2.75,0-5.5,0-8.26,0-.21,0-.42,0-.64.25.12.22.35.22.56,0,1,0,2,0,3a4.45,4.45,0,0,0,.11,1c.13.61.22.7.85.7h3.78l.4,0a.35.35,0,0,0,.31-.3,4.34,4.34,0,0,1,.07-.52,6.19,6.19,0,0,0,.19-2V38.23c0-.14,0-.27,0-.41S60.21,37.6,60.36,37.58Z"/><path class="cls-5" d="M60.36,37.58c-.15,0-.27.08-.29.24s0,.27,0,.41v1.51a6.19,6.19,0,0,1-.19,2,4.34,4.34,0,0,0-.07.52.35.35,0,0,1-.31.3l-.4,0H55.3c-.63,0-.72-.09-.85-.7a4.45,4.45,0,0,1-.11-1c0-1,0-2,0-3,0-.21,0-.44-.22-.56,0-.7,0-1.39,0-2.09a.35.35,0,0,1,.29.15l.21.35a.61.61,0,0,0,.57.31h1.57c.79,0,1.58,0,2.37,0a1.14,1.14,0,0,0,1.11-.56,2.36,2.36,0,0,1,.8-.74.24.24,0,0,1,.27,0,3.83,3.83,0,0,1-.29.28c-.1.09-.15.18-.07.3a5.64,5.64,0,0,0-.53,1.3c-.09,0-.19,0-.21.14s.07.16.16.2A1.62,1.62,0,0,1,60.36,37.58Z"/><path class="cls-3" d="M180.42,61.9h-2.57a4.29,4.29,0,0,1-4.13-3.23,5.11,5.11,0,0,1-.15-1.1c0-1.24,0-2.49,0-3.73,0-.71.26-.87.86-.86.76,0,.93.15.93.92,0,1,0,1.9,0,2.85,0,.25,0,.51,0,.76a2.79,2.79,0,0,0,2.47,2.59c.39,0,.78.06,1.16.06,1.29,0,2.57,0,3.85,0a4.52,4.52,0,0,1,.52,0,.48.48,0,0,1,.47.44,4.38,4.38,0,0,1,0,.81.52.52,0,0,1-.46.46,3.69,3.69,0,0,1-.47,0Z"/><path class="cls-5" d="M88,53.43a2,2,0,0,1,0,.74c0,.39-.2.54-.6.57H80.07a3.15,3.15,0,0,0-.81,0,.41.41,0,0,1,.39-.3h7.09a4.47,4.47,0,0,0,.52,0,.39.39,0,0,0,.39-.42.54.54,0,0,0,0-.18.38.38,0,0,0-.38-.42,3.54,3.54,0,0,0-.46,0h-8.5c-.29,0-.41.14-.42.45s0,.93,0,1.39a1.45,1.45,0,0,0,.13.45c.08.21.26.28.52.25a.36.36,0,0,0,.37-.37c0-.14,0-.28,0-.41a.39.39,0,0,1,.31-.37c0,.31,0,.62,0,.93s.06.32.35.34h7.28a5.61,5.61,0,0,1,.58,0,.48.48,0,0,1,.5.47,3.76,3.76,0,0,1,0,.75.53.53,0,0,1-.55.5,4.51,4.51,0,0,1-.52,0H79.46c-.15,0-.18.13-.22.23a.4.4,0,0,0-.2.4,5.41,5.41,0,0,1-.09,1,1.63,1.63,0,0,0,.09,1,.83.83,0,0,1,.08.28.21.21,0,0,1-.13.23.7.7,0,0,1-.95-.39,2.57,2.57,0,0,1-.16-.91,4.8,4.8,0,0,0,0-.93,11.46,11.46,0,0,1-.1-2c0-.4,0-.81-.08-1.21a16.83,16.83,0,0,1,0-1.74.49.49,0,0,1,.51-.52c.16,0,.31,0,.47,0,2.77,0,5.54,0,8.31,0A1.83,1.83,0,0,1,88,53.43Z"/><path class="cls-3" d="M202.22,61.9h-1.28a4.3,4.3,0,0,1-4.24-4.22,6.4,6.4,0,0,1,.05-1.16A4.3,4.3,0,0,1,200.88,53c.89,0,1.79,0,2.68,0a4.31,4.31,0,0,1,4.19,4.1,5.5,5.5,0,0,1-.14,1.62,4.36,4.36,0,0,1-4,3.19Zm3-6.61h0a6.13,6.13,0,0,1,.85,1.23,2.54,2.54,0,0,1,.23,1.46c0,.23-.09.46-.11.69,0,.42.26.61.63.45a.8.8,0,0,0,.49-.54,2.66,2.66,0,0,0,.12-.74v-.93a3.64,3.64,0,0,0-.21-1.13.57.57,0,0,0-.25-.37,1.42,1.42,0,0,0-.24-.53,4,4,0,0,0-.9-.89,1.42,1.42,0,0,0-.84-.34.3.3,0,0,0-.24-.22l-.93-.12a.79.79,0,0,0-.5-.12c-.68,0-1.35,0-2,0a.81.81,0,0,0-.5.12h-.58l-.23.11c-.32.12-.65.22-1,.37a2,2,0,0,0-1,1,.59.59,0,0,0-.31.25,3.15,3.15,0,0,0-.41.82,4.85,4.85,0,0,0,0,2.8,1.27,1.27,0,0,0,.64.79.5.5,0,0,0,.55.05c.19-.13.14-.34.1-.53s-.06-.15-.08-.22a5.7,5.7,0,0,1-.16-.55,2.27,2.27,0,0,1,.17-1.58.31.31,0,0,1,.2-.19c0,.18-.09.37-.13.56a1.79,1.79,0,0,0,0,.86,2.77,2.77,0,0,0,2.28,2.2,10.4,10.4,0,0,0,2.73,0,2.57,2.57,0,0,0,2.22-1.72,2.4,2.4,0,0,0-.5-2.65l-.39-.43Z"/><path class="cls-3" d="M154.55,53h1.28a4.34,4.34,0,0,1,4.27,4.21,4.43,4.43,0,0,1-1.32,3.48A4.09,4.09,0,0,1,156,61.89q-1.42.06-2.85,0a4.27,4.27,0,0,1-4.07-4,5.87,5.87,0,0,1,0-1.45A4.34,4.34,0,0,1,153.15,53c.47,0,.93,0,1.4,0Zm-4.79,2.66a1.48,1.48,0,0,0-.23.53,4.72,4.72,0,0,0-.12,1.5,3,3,0,0,0,.42,1.49.78.78,0,0,0,.36.36c.18.09.38.26.59.12s.13-.42.07-.64-.17-.56-.23-.84a2.46,2.46,0,0,1,.09-1.37.5.5,0,0,1,.3-.33l-.09.33a2.24,2.24,0,0,0,0,1.15,2.77,2.77,0,0,0,2.33,2.15,12.65,12.65,0,0,0,2.61,0,2.51,2.51,0,0,0,1.34-.51,2.59,2.59,0,0,0,.76-3.46c0-.08-.09-.17-.13-.25a.54.54,0,0,1,.43.26,2.35,2.35,0,0,1,.39,1.08,3.49,3.49,0,0,1-.18,1.6,1.69,1.69,0,0,0-.12.44c-.05.3.18.51.45.39a1.25,1.25,0,0,0,.67-.53,2.35,2.35,0,0,0,.35-1.15c0-.44,0-.89,0-1.33a2.47,2.47,0,0,0-.58-1.48,1,1,0,0,0-.3-.48,11,11,0,0,0-1.1-.95,1.69,1.69,0,0,0-.68-.31,6.82,6.82,0,0,0-1.55-.22,17,17,0,0,0-2.67.09A3.73,3.73,0,0,0,149.76,55.64Z"/><path class="cls-3" d="M88,53.43a1.83,1.83,0,0,0-1-.24c-2.77,0-5.54,0-8.31,0-.16,0-.31,0-.47,0a.49.49,0,0,0-.51.52,16.83,16.83,0,0,0,0,1.74c0,.4.08.81.08,1.21a11.46,11.46,0,0,0,.1,2,4.8,4.8,0,0,1,0,.93,2.57,2.57,0,0,0,.16.91.7.7,0,0,0,.95.39.21.21,0,0,0,.13-.23.83.83,0,0,0-.08-.28,1.63,1.63,0,0,1-.09-1,5.41,5.41,0,0,0,.09-1,.4.4,0,0,1,.2-.4c0,.47,0,.94,0,1.4,0,.14,0,.27,0,.41s.08.24.26.25.43,0,.64,0h7.28a.52.52,0,0,1,.54.51,3.76,3.76,0,0,1,0,.75.52.52,0,0,1-.46.46h-9.2a2,2,0,0,1-.35,0,.49.49,0,0,1-.44-.47c0-.15,0-.31,0-.47q0-3.46,0-6.93a4.51,4.51,0,0,1,0-.52A.49.49,0,0,1,78,53a2.82,2.82,0,0,1,.41,0h8.74a1.8,1.8,0,0,1,.4,0A.43.43,0,0,1,88,53.43Z"/><path class="cls-3" d="M224,61.9h-2.73c-.6,0-.74-.16-.75-.77a3.08,3.08,0,0,1,0-.53.45.45,0,0,1,.41-.41,3.14,3.14,0,0,1,.53,0c1.2,0,2.4,0,3.6,0,.49,0,1,0,1.45,0a2.77,2.77,0,0,0,2.36-2,5,5,0,0,0,.15-1.27V54a3.62,3.62,0,0,1,0-.47.53.53,0,0,1,.53-.52,5.3,5.3,0,0,1,.69,0,.5.5,0,0,1,.5.48c0,.12,0,.23,0,.35v3.78a4.32,4.32,0,0,1-4.24,4.29Zm6.65-6.82c0-.42,0-.78,0-1.15,0-.52-.11-.61-.61-.62h-.06c-.45,0-.6.12-.68.55a1.08,1.08,0,0,0,0,.4,4.47,4.47,0,0,1,.07,1c0,.6,0,1.2,0,1.8a4.92,4.92,0,0,1-.26,1.83,1.68,1.68,0,0,0-.07.39.26.26,0,0,0,.25.27.66.66,0,0,0,.39-.09,1.33,1.33,0,0,0,.64-.72,3.74,3.74,0,0,0,.21-1.2,3.13,3.13,0,0,1,0-.75A10.39,10.39,0,0,0,230.61,55.08Z"/><path class="cls-2" d="M128.65,18.26a.6.6,0,0,1-.2-.41.61.61,0,0,0-.48-.45,3.16,3.16,0,0,0-.75-.11h-4.66a4.37,4.37,0,0,0-1.9.5,1.87,1.87,0,0,0-.55.42,15.31,15.31,0,0,0-1.51,1.61l-.12.13c-.64.68-1.28,1.35-1.91,2-.22.24-.41.52-.61.77s-.25.2-.35.31c-.51.61-1,1.24-1.52,1.84a8.06,8.06,0,0,1-1.49,1.37,4.4,4.4,0,0,1-.56.31,2.11,2.11,0,0,1-2.26-.2A7.75,7.75,0,0,1,108.3,25c-.38-.42-.72-.87-1.1-1.28s-.79-.81-1.12-1.26a1.92,1.92,0,0,0-.22-.18c-.51-.59-1-1.19-1.56-1.73a6,6,0,0,1-.58-.65c-.42-.48-.8-1-1.27-1.44a3.66,3.66,0,0,0-2.73-1.09c-.62,0-1.24,0-1.86,0H94.78c-.75,0-1.31.47-.77,1.36A6.65,6.65,0,0,0,94.94,20c.27.28.56.55.8.85a11,11,0,0,0,1.2,1.26.9.9,0,0,0,.37.47l.11.11a14.52,14.52,0,0,0,1.23,1.49.8.8,0,0,1,.3.59,12.17,12.17,0,0,1-1.39-1.48c-1.1-1.23-2.18-2.47-3.27-3.71a5,5,0,0,1-.58-.73,2,2,0,0,1-.29-.69.79.79,0,0,1,.47-1A2.84,2.84,0,0,1,95.08,17h4.6a4,4,0,0,1,2.34.75,6.42,6.42,0,0,1,1.3,1.25c.27.33.55.66.83,1l4.41,4.89c.26.29.52.58.79.86a2.5,2.5,0,0,0,.39.34,2,2,0,0,0,2.59,0,8.16,8.16,0,0,0,1.74-1.63c.53-.62,1-1.25,1.58-1.86q2-2.29,4.15-4.49A3.51,3.51,0,0,1,122.35,17c1.67,0,3.34,0,5,0a2.22,2.22,0,0,1,.8.15A.85.85,0,0,1,128.65,18.26Z"/><path class="cls-5" d="M107.46,56.32a.28.28,0,0,1-.23.13.46.46,0,0,0-.49.07c-.25.17-.61.16-.76.48,0,0,0,0,0,0l-.11.11a.29.29,0,0,0-.22.25.69.69,0,0,0,.24.67,2.43,2.43,0,0,0,.59.37l2.89,1.36a2.8,2.8,0,0,1,.68.43.64.64,0,0,1,.22.4.39.39,0,0,1-.39.47,1.45,1.45,0,0,1-.73-.17c-.26-.12-.52-.25-.79-.35-.49-.18-1-.43-1.44-.61a14.19,14.19,0,0,1-1.37-.64l-1.48-.68a.48.48,0,0,0-.54,0c-.11,0-.22,0-.27.11a.58.58,0,0,0-.3.58c0,.39,0,.77,0,1.16a3.46,3.46,0,0,1,0,.46.46.46,0,0,1-.46.43A.45.45,0,0,1,102,61a7.73,7.73,0,0,1-.15-1.09c0-1.35,0-2.7,0-4a1.18,1.18,0,0,0,1.08-.09.35.35,0,0,1,.11,0c0,.18,0,.38.22.46h0a.3.3,0,0,0,.31.2,1.21,1.21,0,0,0,.61-.16,11.29,11.29,0,0,1,1.41-.65.55.55,0,0,1-.18.29,5.33,5.33,0,0,0-.42.4c-.08.08-.17.17-.09.29a.24.24,0,0,0,.27.07,1.51,1.51,0,0,0,.32-.11,4.43,4.43,0,0,1,1.67-.39A.3.3,0,0,1,107.46,56.32Z"/><path class="cls-3" d="M161,24.65a.74.74,0,0,1,.44.7,7.22,7.22,0,0,1,0,1,1.14,1.14,0,0,1-.26.64A2.49,2.49,0,0,1,160,28a6.59,6.59,0,0,1-1.24.3,22.6,22.6,0,0,1-3.08.11H143.26a5,5,0,0,0-1.16.11,1.57,1.57,0,0,0-1.2,1.27,7.22,7.22,0,0,0,0,2.54c0,.15,0,.31,0,.46a1.78,1.78,0,0,0,.47,1.05,1.45,1.45,0,0,0,.81.4,14.64,14.64,0,0,0,2.09.11h14.55a8.93,8.93,0,0,0,1.27-.08c.42-.07.85-.06,1.27-.14a8,8,0,0,0,4.4-2.21c.19-.19.34-.43.64-.48A1.52,1.52,0,0,1,166,32a8.37,8.37,0,0,1-4.46,2.36,10.78,10.78,0,0,1-2.19.22H142.75a3.62,3.62,0,0,1-.87-.09,1.7,1.7,0,0,1-1.18-1,3.22,3.22,0,0,1-.2-1.14q0-1,0-1.92a2.91,2.91,0,0,1,.19-1.09A1.68,1.68,0,0,1,142,28.15a5.49,5.49,0,0,1,1-.06c4,0,7.92,0,11.87,0,.9,0,1.79,0,2.68-.05a10.08,10.08,0,0,0,1.9-.24,2.28,2.28,0,0,0,1.08-.55,2,2,0,0,0,.57-2.22Z"/><path class="cls-3" d="M60,55.17a5.5,5.5,0,0,0-.07,1c0,1.59,0,3.18,0,4.77a3.53,3.53,0,0,1,0,.46.51.51,0,0,1-.48.5,3.75,3.75,0,0,1-.75,0,.47.47,0,0,1-.48-.48c0-.18,0-.35,0-.53,0-1.59,0-3.18,0-4.77a2.69,2.69,0,0,0-.08-.8.58.58,0,0,0-.51-.49,5.34,5.34,0,0,0-.69-.05H54.74c-.7,0-.82-.15-.84-.87s.13-.91.88-.9c2.85,0,5.7,0,8.55,0a2.68,2.68,0,0,1,.4,0,.49.49,0,0,1,.46.46,4.37,4.37,0,0,1,0,.81.51.51,0,0,1-.51.47,3.53,3.53,0,0,1-.46,0h-2a2.56,2.56,0,0,0-1,.18.51.51,0,0,1,.5-.33h2.39a1.21,1.21,0,0,0,.67-.16.65.65,0,0,0,.26-.72.52.52,0,0,0-.51-.39H55.1a2.42,2.42,0,0,0-.47,0,.46.46,0,0,0-.38.39.63.63,0,0,0,.38.76,1.35,1.35,0,0,0,.63.1h1.86a2.08,2.08,0,0,1,.74.11,1,1,0,0,1,.66.82,2.36,2.36,0,0,1,0,.46,5.92,5.92,0,0,0,.14,1,.41.41,0,0,0,.41.34.42.42,0,0,0,.43-.25.8.8,0,0,0,.07-.34c0-.41.13-.8.13-1.21A.39.39,0,0,1,60,55.17Z"/><path class="cls-1" d="M60,55.17a.39.39,0,0,0-.3.39c0,.41-.15.8-.13,1.21a.8.8,0,0,1-.07.34.42.42,0,0,1-.43.25.41.41,0,0,1-.41-.34,5.92,5.92,0,0,1-.14-1,2.36,2.36,0,0,0,0-.46,1,1,0,0,0-.66-.82,2.08,2.08,0,0,0-.74-.11H55.26a1.35,1.35,0,0,1-.63-.1.63.63,0,0,1-.38-.76.46.46,0,0,1,.38-.39,2.42,2.42,0,0,1,.47,0h8.38a.52.52,0,0,1,.51.39.65.65,0,0,1-.26.72,1.21,1.21,0,0,1-.67.16H60.67a.51.51,0,0,0-.5.33Z"/><path class="cls-2" d="M90.44,17.43l-.65,0a.29.29,0,0,0-.27-.18l-2.61,0a3.4,3.4,0,0,0-1.13.27,1,1,0,0,0-.48.49A2.59,2.59,0,0,0,85,19.24v2.27c0,1,0,2.09,0,3.13l0,.7a.5.5,0,0,0-.09.35,2.87,2.87,0,0,1-.23,1.08,1.06,1.06,0,0,1-.3.48,1.18,1.18,0,0,0-.31.42.36.36,0,0,0-.25.23,3.19,3.19,0,0,1-1,.26.36.36,0,0,0-.24.09l-.58,0a.62.62,0,0,0-.47.1H63.67a.87.87,0,0,0-.59-.1l-.46,0-.24-.09-.75-.23a.56.56,0,0,1-.42-.47,5.77,5.77,0,0,0,2.64.6H80.31a11.35,11.35,0,0,0,2.26-.15,3.87,3.87,0,0,0,1-.29,1.7,1.7,0,0,0,.8-.81A5,5,0,0,0,84.73,25c0-.4,0-.81,0-1.22V19.26a3.21,3.21,0,0,1,.08-.87A1.73,1.73,0,0,1,86.38,17a19.36,19.36,0,0,1,3.14,0A1.16,1.16,0,0,1,90.44,17.43Z"/><path class="cls-2" d="M127,56.68v4.49a1.32,1.32,0,0,1,0,.28.52.52,0,0,1-.48.45,4.38,4.38,0,0,1-.81,0,.49.49,0,0,1-.46-.45,2.69,2.69,0,0,1,0-.4c0-2.39,0-4.78,0-7.16,0-.77.15-.91.93-.91h.35a1.47,1.47,0,0,1,1.1.44L129,54.74l3.66,3.5a1.62,1.62,0,0,0,.56.41.34.34,0,0,0,.47-.21,2.15,2.15,0,0,0,.11-.8V54a4.51,4.51,0,0,1,0-.52.52.52,0,0,1,.52-.53,3.76,3.76,0,0,1,.75,0c.24,0,.45.14.44.44a2.65,2.65,0,0,0-1.08-.12.4.4,0,0,0-.38.37,1.46,1.46,0,0,0,0,.29l0,2.72a.32.32,0,0,0,.09.23v.71a2.05,2.05,0,0,1-.16.95.7.7,0,0,1-1.11.25,1.34,1.34,0,0,1-.21-.2,2.16,2.16,0,0,0-.6-.44c-.7-.8-1.48-1.51-2.23-2.27a1.92,1.92,0,0,0-.22-.18c-.63-.73-1.34-1.38-2-2.06a1.42,1.42,0,0,0-1.12-.39.27.27,0,0,0-.36,0h-.17c-.31.08-.38.16-.41.46a2.71,2.71,0,0,0,0,.29c0,.64,0,1.29,0,1.94,0,.43,0,.86,0,1.28s.07.65.07,1,0,.78,0,1.16a6.9,6.9,0,0,0,.15,1.21c0,.31.23.48.44.47a.58.58,0,0,0,.44-.48,2.74,2.74,0,0,0,0-.58,26.46,26.46,0,0,1,.12-3C126.83,56.92,126.85,56.76,127,56.68Z"/><path class="cls-3" d="M244.25,57.46V54a4.52,4.52,0,0,1,0-.52.5.5,0,0,1,.41-.44,2.54,2.54,0,0,1,.87,0,.49.49,0,0,1,.43.48,3.49,3.49,0,0,1,0,.46q0,3.52,0,7a2.77,2.77,0,0,1,0,.41.5.5,0,0,1-.48.49,4.09,4.09,0,0,1-.7,0,.52.52,0,0,1-.52-.53c0-.15,0-.31,0-.46V57.46Zm1.5-2.12h0c0-.52,0-1,0-1.56,0-.33-.14-.44-.47-.47H245c-.3,0-.44.13-.44.42,0,.79,0,1.59,0,2.37,0,.43.08.85.09,1.27a1.34,1.34,0,0,0,.06.4.42.42,0,0,0,.4.28.41.41,0,0,0,.36-.26,1.31,1.31,0,0,0,.08-.21,5,5,0,0,0,.14-1.09C245.74,56.11,245.75,55.73,245.75,55.34Z"/><path class="cls-1" d="M125.52,56c0-.65,0-1.3,0-1.94a2.71,2.71,0,0,1,0-.29c0-.3.1-.38.41-.46h.17a.23.23,0,0,0,.36,0,1.42,1.42,0,0,1,1.12.39c.69.68,1.4,1.33,2,2.06a2.13,2.13,0,0,0,.17.67.23.23,0,0,1-.18.26.83.83,0,0,1-.55-.12,2.62,2.62,0,0,0-1-.43l-.44,0c0-.07,0-.15-.13-.12s-.09.1-.1.17l-.21.1a.59.59,0,0,0-.63.28.81.81,0,0,1-.16.16.23.23,0,0,1-.35,0,1.7,1.7,0,0,1-.19-.35A.48.48,0,0,0,125.52,56Z"/><path class="cls-2" d="M220,34.08l0,.24h-.14a2.55,2.55,0,0,1-.34-1.34c0-1,0-1.94,0-2.91a2.33,2.33,0,0,1,.19-.85A1.7,1.7,0,0,1,221,28.14a4.72,4.72,0,0,1,1-.07h11.93c.83,0,1.67,0,2.5,0a11.37,11.37,0,0,0,2-.24,2.38,2.38,0,0,0,1.08-.53,2,2,0,0,0,.65-2.05l-.12-.44a.52.52,0,0,1,.36.54c0,.34,0,.69,0,1a1.12,1.12,0,0,1-.34.78l-.54.54a1.37,1.37,0,0,1-.66.35,7.27,7.27,0,0,1-1.61.23l-.58,0-.23.08H222.16a3.79,3.79,0,0,0-1.16.12,1.54,1.54,0,0,0-1,1.07,5.19,5.19,0,0,0-.19,1.61l0,2v.23A1,1,0,0,0,220,34.08Z"/><path class="cls-1" d="M107.46,56.32a.3.3,0,0,0-.29-.15,4.43,4.43,0,0,0-1.67.39,1.51,1.51,0,0,1-.32.11.24.24,0,0,1-.27-.07c-.08-.12,0-.21.09-.29a5.33,5.33,0,0,1,.42-.4.55.55,0,0,0,.18-.29l.32-.11a.27.27,0,0,0,.26-.22l1.83-.87c.67-.31,1.32-.65,2-.9a.32.32,0,0,0,.25.12h0a1.51,1.51,0,0,0,.11.94v.35a.45.45,0,0,1-.35.25c0-.07,0-.15-.13-.13s-.07.08-.09.12a.45.45,0,0,0,0,.11,2.41,2.41,0,0,1-.82.36c0-.07,0-.15-.13-.13s-.07.08-.09.12a.37.37,0,0,0,0,.11A5.7,5.7,0,0,1,107.46,56.32Z"/><path class="cls-1" d="M219.31,23.35a.3.3,0,0,1,.26-.2l.52,0h17a4.67,4.67,0,0,1,2.45.61.46.46,0,0,1,.3.45.83.83,0,0,0-.38-.1.12.12,0,0,1-.08,0,.54.54,0,0,0-.61-.31l-.31-.1c0-.12-.13-.13-.23-.06l-.35-.06a.44.44,0,0,0-.59-.05c-4.78-.07-9.56,0-14.35,0-1.2,0-2.4,0-3.6,0Z"/><path class="cls-2" d="M54.14,35.25c0,.7,0,1.39,0,2.09,0,.22,0,.43,0,.64,0,2.76,0,5.51,0,8.26a12.48,12.48,0,0,0,.14,1.5,1.27,1.27,0,0,0,.79.95,2,2,0,0,0,.9.19h2.21a1,1,0,0,1,.62.11,1.13,1.13,0,0,1-.57.09H56.05a3.39,3.39,0,0,1-.64-.06,1.78,1.78,0,0,1-1.51-1.62,5.52,5.52,0,0,1,0-.58q0-11.4,0-22.81a4.38,4.38,0,0,1,0-.52h.2c0,.46,0,.93,0,1.4,0,.23,0,.46,0,.69,0,1.41,0,2.83,0,4.24a4.61,4.61,0,0,0,.06,1,1.08,1.08,0,0,1,0,.4,4.55,4.55,0,0,0-.07,1Z"/><path class="cls-3" d="M206.14,23.36a.69.69,0,0,1-.4.08H178.11a2.37,2.37,0,0,1-.75,0v-.15h28.77Z"/><path class="cls-2" d="M101.86,55.88c0,1.35,0,2.7,0,4A7.73,7.73,0,0,0,102,61a.45.45,0,0,0,.44.39.46.46,0,0,0,.46-.43,3.46,3.46,0,0,0,0-.46c0-.39,0-.77,0-1.16a.58.58,0,0,1,.3-.58c0,.83,0,1.66,0,2.49,0,.45-.2.62-.65.64a4.53,4.53,0,0,1-.64,0,.49.49,0,0,1-.46-.45,2.42,2.42,0,0,1,0-.47c0-2.34,0-4.69,0-7a3,3,0,0,1,0-.52A.48.48,0,0,1,102,53a3.66,3.66,0,0,1,.81,0,.51.51,0,0,1,.48.5c0,.11,0,.23,0,.35v2.38c-.23-.08-.2-.28-.22-.46v-.7c0-.36,0-.73,0-1.1s-.15-.66-.65-.67-.67.11-.68.68A10.16,10.16,0,0,0,101.86,55.88Z"/><path class="cls-2" d="M91,20v-.69a1,1,0,0,1,.11-.46,1.61,1.61,0,0,1,0,.58q0,13.12,0,26.27a4.73,4.73,0,0,1,0,.52,1.34,1.34,0,0,1-.1-.74c0-3.21,0-6.43,0-9.64,0-.27,0-.54,0-.81s0-.39,0-.58q0-6.87,0-13.75C91.05,20.45,91,20.22,91,20Z"/><path class="cls-1" d="M134.05,56.69,134,54a1.46,1.46,0,0,1,0-.29.4.4,0,0,1,.38-.37,2.65,2.65,0,0,1,1.08.12,5.8,5.8,0,0,1,0,1.1c0,.6,0,1.2,0,1.8a.56.56,0,0,0-.19.51c0,.34,0,.68,0,1a.68.68,0,0,0-.37.09.34.34,0,0,1-.49-.1.49.49,0,0,0-.31-.22v-.71C134.24,56.8,134.18,56.73,134.05,56.69Z"/><path class="cls-2" d="M103.51,58.67a.48.48,0,0,1,.54,0l1.48.68a14.19,14.19,0,0,0,1.37.64c.49.18.95.43,1.44.61.27.1.53.23.79.35a1.45,1.45,0,0,0,.73.17.39.39,0,0,0,.39-.47.64.64,0,0,0-.22-.4,2.8,2.8,0,0,0-.68-.43l-2.89-1.36a2.43,2.43,0,0,1-.59-.37.69.69,0,0,1-.24-.67.29.29,0,0,1,.22-.25c-.11.4-.09.5.2.69a3,3,0,0,0,.56.29l3.23,1.45.32.15a.81.81,0,0,1,.42.66,8,8,0,0,1,0,1c0,.34-.24.47-.56.36a3,3,0,0,1-.49-.2l-5.67-2.66C103.73,58.82,103.59,58.79,103.51,58.67Z"/><path class="cls-5" d="M125.52,56a.48.48,0,0,1,.32.3,1.7,1.7,0,0,0,.19.35.23.23,0,0,0,.35,0,.81.81,0,0,0,.16-.16.59.59,0,0,1,.63-.28l-.15.45c-.17.08-.19.24-.2.4a26.46,26.46,0,0,0-.12,3,2.74,2.74,0,0,1,0,.58.58.58,0,0,1-.44.48c-.21,0-.4-.16-.44-.47a6.9,6.9,0,0,1-.15-1.21c0-.38,0-.77,0-1.16s0-.65-.07-1S125.53,56.42,125.52,56Z"/><path class="cls-2" d="M135.31,57.86c0-.34,0-.68,0-1a.56.56,0,0,1,.19-.51c0,.16,0,.31,0,.46,0,1.4,0,2.8,0,4.19v.12c0,.66-.16.81-.83.82-.12,0-.23,0-.35,0a1.61,1.61,0,0,1-1.2-.49l-2.77-2.66-2.2-2.08c-.18-.17-.38-.33-.57-.49v-.12l.44,0a.91.91,0,0,0,.39.49,8.94,8.94,0,0,1,.85.77,10.53,10.53,0,0,0,1.46,1.3c.12.13.22.27.35.39s.53.44.79.68c.5.48,1,1,1.52,1.42a1.58,1.58,0,0,0,1.16.42c.51,0,.62-.11.63-.61a5.53,5.53,0,0,1,.1-1.15,2,2,0,0,0,0-.35C135.32,58.94,135.31,58.4,135.31,57.86Z"/><path class="cls-2" d="M110,53.52c-.69.25-1.34.59-2,.9l-1.83.87a.34.34,0,0,0-.26.22l-.32.11a11.29,11.29,0,0,0-1.41.65,1.21,1.21,0,0,1-.61.16.3.3,0,0,1-.31-.2,3.34,3.34,0,0,0,.81-.32l5.37-2.5c.18-.08.35-.17.53-.23.37-.13.52,0,.6.37a.25.25,0,0,1,0,.12l-.28,0h0C110.24,53.5,110.17,53.44,110,53.52Z"/><path class="cls-2" d="M99,24.77a.64.64,0,0,1,.43.27,10.89,10.89,0,0,1,1.18,1.27l.07.09c.6.63,1.19,1.26,1.78,1.91s1,1.12,1.49,1.69a2.83,2.83,0,0,0,.24.25,16.76,16.76,0,0,1,1.18,1.35.59.59,0,0,1,.17.47c-.14,0-.21-.17-.3-.27q-3-3.3-5.93-6.62A1,1,0,0,1,99,24.77Z"/><path class="cls-1" d="M246,51.45v.81a.26.26,0,0,0-.22.19,5.53,5.53,0,0,1-1.15,0,1.64,1.64,0,0,1-.13-.73.53.53,0,0,1,.51-.51A1.55,1.55,0,0,1,246,51.45Z"/><path class="cls-2" d="M54.79,17.64a1.75,1.75,0,0,0-.68,1.3h-.2A1.78,1.78,0,0,1,55.39,17,2.87,2.87,0,0,1,55.8,17q1.31,0,2.61,0a1.2,1.2,0,0,1,.82.22c-.15.12-.31,0-.46,0l-2.84,0a2.33,2.33,0,0,0-.78.22A.47.47,0,0,0,54.79,17.64Z"/><path class="cls-5" d="M53.91,18.94h.2a.84.84,0,0,1,.12.56v3.42a.86.86,0,0,1-.12.56h-.2C53.87,22,53.87,20.45,53.91,18.94Z"/><path class="cls-2" d="M60.28,47.48a.84.84,0,0,1-.11-.56V43.28c0-.21,0-.43.17-.58,0,.13,0,.26,0,.4v3.76A1.1,1.1,0,0,1,60.28,47.48Z"/><path class="cls-2" d="M246,51.45a1.55,1.55,0,0,0-1-.23.53.53,0,0,0-.51.51,1.64,1.64,0,0,0,.13.73c-.34,0-.37,0-.37-.29s0-.54,0-.81.08-.34.35-.35.73,0,1.1,0S246,51.09,246,51.45Z"/><path class="cls-3" d="M167.12,30.36a1,1,0,0,1,.13-.61A6.83,6.83,0,0,0,168,27c0-.18,0-.36.2-.45a3.81,3.81,0,0,1-.12,1.21,8.18,8.18,0,0,1-.78,2.31A.8.8,0,0,1,167.12,30.36Z"/><path class="cls-1" d="M206.14,23.36v-.12a.35.35,0,0,1,.25-.22,1.41,1.41,0,0,0,1-1.2.35.35,0,0,1,.21-.32l.12.11A1.71,1.71,0,0,1,206.14,23.36Z"/><path class="cls-3" d="M168.12,24a.34.34,0,0,1-.19-.27.59.59,0,0,0-.12-.31v-.23a5.6,5.6,0,0,0-.48-1.23,3.67,3.67,0,0,1-.36-.84l0,0A6,6,0,0,1,168.12,24Z"/><path class="cls-1" d="M207.77,19.05a16.45,16.45,0,0,1,0,2.22h-.12a4.72,4.72,0,0,1,0-2.21Z"/><path class="cls-1" d="M216.58,25.81h-.19c0-.07-.08-.15-.07-.21a3.84,3.84,0,0,1,.36-1.05.44.44,0,0,1,.42-.25A6.28,6.28,0,0,0,216.58,25.81Z"/><path class="cls-5" d="M110.28,53.65l.28,0a3.47,3.47,0,0,1,0,.91h-.16A1.51,1.51,0,0,1,110.28,53.65Z"/><path class="cls-2" d="M106,57.05s0,0,0,0c.15-.32.51-.31.76-.48a.46.46,0,0,1,.49-.07A5.47,5.47,0,0,1,106,57.05Z"/><path class="cls-3" d="M165.25,18.94a2.33,2.33,0,0,1,.81.81l-.35-.11a.91.91,0,0,0-.35-.35l-.15-.31Z"/><path class="cls-3" d="M219.9,34.32H220c.29.13.32.44.44.67,0,.07,0,.14-.1.18A1.76,1.76,0,0,1,219.9,34.32Z"/><path class="cls-5" d="M60.74,27.09c-.34-.2-.36-.55-.4-.89,0-.08.09-.12.16-.15l.26.79Z"/><path class="cls-2" d="M90.84,18.54v-.68a.9.9,0,0,1,.28.73Z"/><path class="cls-3" d="M116.32,32.44a.69.69,0,0,1,.59-.68A1.93,1.93,0,0,1,116.32,32.44Z"/><path class="cls-1" d="M90.84,18.54l.28.05,0,.24a1,1,0,0,0-.11.46.34.34,0,0,1-.21-.36C90.82,18.8,90.83,18.67,90.84,18.54Z"/><path class="cls-1" d="M165.71,19.64l.35.11a.16.16,0,0,1,.12.14v.33A.56.56,0,0,1,165.71,19.64Z"/><path class="cls-2" d="M239.42,24.09a.83.83,0,0,1,.38.1l.23.23v.12l0,.09a.1.1,0,0,1-.09,0Z"/><path class="cls-5" d="M58.77,17.22c.15,0,.31.1.46,0a.25.25,0,0,1,.23.13c-.07.11-.16.18-.28.15S58.84,17.41,58.77,17.22Z"/><path class="cls-3" d="M168.24,24.88c-.28-.2-.22-.44-.09-.69A1.17,1.17,0,0,1,168.24,24.88Z"/><path class="cls-3" d="M166.53,20.33A1.8,1.8,0,0,1,167,21l0,0-.43-.38h0l0-.31Z"/><path class="cls-3" d="M117.36,31.26a.53.53,0,0,1,.48-.55A1.35,1.35,0,0,1,117.36,31.26Z"/><path class="cls-3" d="M244.55,19.17a.49.49,0,0,1-.54-.45A1,1,0,0,1,244.55,19.17Z"/><path class="cls-2" d="M237.25,23.47a.44.44,0,0,1,.59.05A1.18,1.18,0,0,1,237.25,23.47Z"/><path class="cls-5" d="M60.47,25.81c-.32-.12-.33-.14-.18-.47h.11A1.1,1.1,0,0,1,60.47,25.81Z"/><path class="cls-3" d="M176.89,24.06a.75.75,0,0,1-.11-.46l.21-.19v0C176.89,23.63,177,23.86,176.89,24.06Z"/><path class="cls-3" d="M159.2,23.58a.43.43,0,0,1,.57.2A1.94,1.94,0,0,1,159.2,23.58Z"/><path class="cls-3" d="M166.76,30.93c0-.25.07-.49.36-.57A1.08,1.08,0,0,1,166.76,30.93Z"/><path class="cls-1" d="M177.37,23.25v.15l-.36,0v0C177.12,23.15,177.12,23.15,177.37,23.25Z"/><path class="cls-1" d="M217.79,23.81a.3.3,0,0,1,.32-.32h.28l0,.13Z"/><path class="cls-1" d="M218.61,23.46c.14-.21.14-.21.35-.07l0,.12-.34.07Z"/><path class="cls-2" d="M238.73,23.74a.54.54,0,0,1,.61.31A2.07,2.07,0,0,1,238.73,23.74Z"/><path class="cls-1" d="M207.42,18.12l.2,0a.16.16,0,0,1,0,.18l0,.39C207.38,18.58,207.43,18.34,207.42,18.12Z"/><path class="cls-3" d="M166.41,31.4a.41.41,0,0,1,.35-.46A.8.8,0,0,1,166.41,31.4Z"/><path class="cls-3" d="M207.64,18.71l0-.39a.93.93,0,0,1,.1.73h-.12C207.64,18.94,207.64,18.83,207.64,18.71Z"/><path class="cls-3" d="M166.18,20.22v-.33a.8.8,0,0,1,.35.44l0,0-.31-.15Z"/><path class="cls-3" d="M245.39,20.1a.36.36,0,0,1-.34-.41A.63.63,0,0,1,245.39,20.1Z"/><path class="cls-1" d="M217.33,24.07a.34.34,0,0,1,0-.1c.06-.22.11-.23.34-.11A.61.61,0,0,1,217.33,24.07Z"/><path class="cls-2" d="M59.59,48.65a.37.37,0,0,1,.34-.35A.52.52,0,0,1,59.59,48.65Z"/><path class="cls-2" d="M90.79,17.78a.37.37,0,0,1-.34-.34A.45.45,0,0,1,90.79,17.78Z"/><path class="cls-2" d="M218.94,23.51l0-.12.35,0v.12A.45.45,0,0,1,218.94,23.51Z"/><path class="cls-3" d="M137.51,25.92a.2.2,0,0,1,.05-.34A.5.5,0,0,1,137.51,25.92Z"/><path class="cls-5" d="M108.75,55.75a.37.37,0,0,1,0-.11s0-.11.09-.12.11.06.13.13A.21.21,0,0,1,108.75,55.75Z"/><path class="cls-3" d="M207.65,21.27h.12a.32.32,0,0,1,0,.34l-.12-.11Z"/><path class="cls-5" d="M127.61,56.08v.12l-.24-.07c0-.07,0-.15.1-.17S127.59,56,127.61,56.08Z"/><path class="cls-3" d="M158.39,23.47a.2.2,0,0,1,.34,0A.45.45,0,0,1,158.39,23.47Z"/><path class="cls-3" d="M60.39,37c-.09,0-.18-.09-.16-.2s.12-.12.21-.14A.5.5,0,0,1,60.39,37Z"/><path class="cls-5" d="M109.8,55.29a.45.45,0,0,1,0-.11s0-.11.09-.12.11.06.13.13A.21.21,0,0,1,109.8,55.29Z"/><path class="cls-2" d="M60.74,27.09l0-.25a.62.62,0,0,1,.22.37A.37.37,0,0,1,60.74,27.09Z"/><path class="cls-2" d="M60.06,48.08a.31.31,0,0,1,.17-.37A.41.41,0,0,1,60.06,48.08Z"/><path class="cls-3" d="M245.73,20.57a.26.26,0,0,1-.22-.31A.37.37,0,0,1,245.73,20.57Z"/><path class="cls-2" d="M110.39,54.59h.16a.32.32,0,0,1-.17.36Z"/><path class="cls-3" d="M118.55,29.92a.27.27,0,0,1,.22-.26A.36.36,0,0,1,118.55,29.92Z"/><path class="cls-2" d="M238.19,23.58c.1-.07.18-.06.23.06A.32.32,0,0,1,238.19,23.58Z"/><path class="cls-2" d="M218.61,23.46v.12a.22.22,0,0,1-.23.05l0-.13Z"/><path class="cls-2" d="M245.74,52.45a.26.26,0,0,1,.22-.19C246,52.43,245.9,52.47,245.74,52.45Z"/><path class="cls-3" d="M140,23.49c.07-.09.14-.1.22,0A.24.24,0,0,1,140,23.49Z"/><path class="cls-2" d="M60.4,25.34h-.11l.09-.22A.17.17,0,0,1,60.4,25.34Z"/><path class="cls-3" d="M246,20.92a.23.23,0,0,1-.18-.28A.31.31,0,0,1,246,20.92Z"/><path class="cls-5" d="M60.29,18.7c-.08,0-.16,0-.15-.13s.08-.06.12-.1A.24.24,0,0,1,60.29,18.7Z"/><path class="cls-2" d="M11.34,9.15l-.27,0s0-.06.08-.07S11.29,9,11.34,9.15Z"/><path class="cls-3" d="M220,34.08a1,1,0,0,1-.21-.7h.2v.23C220,33.77,220.13,33.92,220,34.08Z"/><path class="cls-5" d="M220,33.39h-.2v-.23C220,33.19,220.05,33.19,220,33.39Z"/><path class="cls-5" d="M243.89,32.57a.47.47,0,0,1-.35.23A.32.32,0,0,1,243.89,32.57Z"/><path class="cls-5" d="M236.43,28.36l.23-.08C236.62,28.41,236.55,28.47,236.43,28.36Z"/><path class="cls-3" d="M240.07,24.63l0-.09A.06.06,0,0,1,240.07,24.63Z"/><path class="cls-4" d="M207.65,21.27v.23a.35.35,0,0,0-.21.32,1.41,1.41,0,0,1-1,1.2.35.35,0,0,0-.25.22H177.37c-.25-.1-.25-.1-.38.16l-.21.19a.35.35,0,0,0-.22.31c0,.19,0,.39,0,.58a2.63,2.63,0,0,1-.09.74c-.14.52-.33.68-.85.7H172a.77.77,0,0,1-.89-.57.34.34,0,0,0-.23-.25v-.46a.92.92,0,0,0,.12-.56V19.61a.92.92,0,0,0-.12-.56,3.12,3.12,0,0,1,.31-1.11.55.55,0,0,1,.28-.28c.27,0,.55-.05.7-.34h33a9.06,9.06,0,0,1,1.27.1,1.15,1.15,0,0,1,.74.41l.26.31c0,.22,0,.46.22.59,0,.12,0,.23,0,.35A4.72,4.72,0,0,0,207.65,21.27Z"/><path class="cls-1" d="M170.84,19.05a.92.92,0,0,1,.12.56v4.48a.29.29,0,1,1-.23,0V19.61A.92.92,0,0,1,170.84,19.05Z"/><path class="cls-1" d="M172.13,17.32c-.15.29-.43.3-.7.34C171.59,17.4,171.86,17.37,172.13,17.32Z"/><path class="cls-5" d="M63.08,28.27a.87.87,0,0,1,.59.1C63.33,28.54,63.29,28.53,63.08,28.27Z"/><path class="cls-5" d="M81.48,28.37a.62.62,0,0,1,.47-.1C81.78,28.51,81.75,28.51,81.48,28.37Z"/><path class="cls-5" d="M84.88,25.69a.5.5,0,0,1,.09-.35C85.09,25.56,85.09,25.56,84.88,25.69Z"/><path class="cls-5" d="M62.38,28.16l.24.09C62.48,28.35,62.42,28.28,62.38,28.16Z"/><path class="cls-5" d="M83.79,27.9a.36.36,0,0,1,.25-.23A.27.27,0,0,1,83.79,27.9Z"/><path class="cls-5" d="M82.53,28.25a.36.36,0,0,1,.24-.09C82.73,28.28,82.67,28.35,82.53,28.25Z"/><path class="cls-1" d="M216.38,26.16c0,1,0,2.05,0,3.08a.87.87,0,0,1,0,.23,10.88,10.88,0,0,0-.1,2.21q0,1.83,0,3.66a15.07,15.07,0,0,1-.25,2.6,2.35,2.35,0,0,0,0,.75c.06.4-.15.6-.56.63h-4.08a.69.69,0,0,1-.66-.62,18.52,18.52,0,0,1-.25-3.07c0-1.8,0-3.6,0-5.41a3.65,3.65,0,0,0-.07-.87,1.81,1.81,0,0,1,0-.4c0-1,0-2,0-3,.21.11.22.3.22.5a8.35,8.35,0,0,0,.16,1.32,2.85,2.85,0,0,0,.11.39.33.33,0,0,0,.26.21,2.69,2.69,0,0,0,.4,0h3.71c.69,0,.82-.12.83-.8,0-.39.13-.76.14-1.15A.29.29,0,0,1,216.38,26.16Z"/><path class="cls-4" d="M165.71,19.64a.56.56,0,0,0,.47.58h0c0,.24.09.42.35.46h0a1,1,0,0,0,.17.54,9.37,9.37,0,0,1,.8,1.58.49.49,0,0,0,.3.33v.23a.55.55,0,0,0-.05.5,5.4,5.4,0,0,1,0,1.39c0,.36-.19.51-.55.54a2.81,2.81,0,0,1-.41,0h-4.31c-.58,0-.63-.06-.79-.62a2.44,2.44,0,0,0-1.1-1.38,3,3,0,0,0-.9-.39,7.63,7.63,0,0,0-2-.29,5.87,5.87,0,0,1-1.45-.09,2.24,2.24,0,0,0-.52,0H142.14a3.53,3.53,0,0,0-.86.07,1.83,1.83,0,0,1-.47,0,6.91,6.91,0,0,0-2.5.45,1.39,1.39,0,0,0-.85.74l-.06.1a.73.73,0,0,1-.74.46h-4.25c-.65,0-.86-.19-.93-.84a4.69,4.69,0,0,1,0-.53c0-1.39,0-2.79,0-4.19a4.44,4.44,0,0,1,.11-1.09.85.85,0,0,1,.55-.69,3,3,0,0,1,1.56-.34h26.1a3.42,3.42,0,0,1,1.15.12c.19.23.19.23.47.11h.23c.14.2.14.2.36.1l.23,0a.35.35,0,0,0,.18.2,7,7,0,0,0,1,.35,1.17,1.17,0,0,1,.45.13.49.49,0,0,0,.47.34h.11a.31.31,0,0,0,.24.23l.23.12c0,.26.22.34.46.35A.91.91,0,0,1,165.71,19.64Z"/><path class="cls-5" d="M137.28,34.2a4.24,4.24,0,0,1-.05.87,3.73,3.73,0,0,0,0,.75c0,1.7,0,3.41,0,5.11a5.14,5.14,0,0,1-.29,1.82c-.08.22-.12.45-.18.68a.39.39,0,0,1-.37.31h-3.9c-.32,0-.5-.06-.5-.47a.88.88,0,0,0-.18-.54,2.08,2.08,0,0,1-.29-1.17c0-1.1,0-2.21,0-3.31a4.25,4.25,0,0,0-.06-.87,2.24,2.24,0,0,1-.05-.52V34.66a3.23,3.23,0,0,0,1.47.24h3.64a.56.56,0,0,0,.58-.4A.41.41,0,0,1,137.28,34.2Z"/><path class="cls-4" d="M97.42,22.69l-.11-.11c0-.38,0-.38-.37-.47a11,11,0,0,1-1.2-1.26c-.24-.3-.53-.57-.8-.85A6.65,6.65,0,0,1,94,18.75c-.54-.89,0-1.37.77-1.36h3.08c.62,0,1.24,0,1.86,0a3.66,3.66,0,0,1,2.73,1.09c.47.44.85,1,1.27,1.44a6,6,0,0,0,.58.65c.56.54,1,1.14,1.56,1.73a.69.69,0,0,0,.18.64,2.51,2.51,0,0,1,.42.62c.14.26.31.49.47.74s.1.34-.19.35h-.35c-1.94,0-3.88,0-5.81,0A1.47,1.47,0,0,1,99.24,24a1.12,1.12,0,0,0-.49-.4,1.31,1.31,0,0,1-.57-.47C98,22.89,97.79,22.64,97.42,22.69Z"/><path class="cls-5" d="M114.22,35.71a2,2,0,0,1,0,.35,5.4,5.4,0,0,0-.1,1.39c0,.08,0,.16,0,.23a13.48,13.48,0,0,0-.1,2.84c0,.59-.15,1.15-.15,1.74a.52.52,0,0,1-.07.27,2.27,2.27,0,0,0-.28.94.26.26,0,0,1-.26.26,2.11,2.11,0,0,1-.35,0h-3.78a.36.36,0,0,1-.34-.34,2.23,2.23,0,0,0-.26-.83.65.65,0,0,1-.08-.27c0-.51-.16-1-.15-1.5,0-.68,0-1.36,0-2a4.45,4.45,0,0,0-.08-1.09,1.39,1.39,0,0,1,0-.41,8.16,8.16,0,0,0-.23-1.9,1.19,1.19,0,0,1,.66.89c0,.08.08.13.16.14l.35,0h4.29a.32.32,0,0,0,.34-.26A.53.53,0,0,1,114.22,35.71Z"/><path class="cls-1" d="M163.4,18.11a7,7,0,0,1-1-.35.35.35,0,0,1-.18-.2,4.66,4.66,0,0,1,.81.23A.59.59,0,0,1,163.4,18.11Z"/><path class="cls-1" d="M165.36,19.29c-.24,0-.41-.09-.46-.35l.31,0Z"/><path class="cls-1" d="M161.4,17.43c-.28.12-.28.12-.47-.11A.6.6,0,0,1,161.4,17.43Z"/><path class="cls-1" d="M164.32,18.58a.49.49,0,0,1-.47-.34C164.07,18.28,164.25,18.35,164.32,18.58Z"/><path class="cls-1" d="M162,17.54c-.22.1-.22.1-.36-.1A.45.45,0,0,1,162,17.54Z"/><path class="cls-1" d="M164.67,18.82a.31.31,0,0,1-.24-.23A.3.3,0,0,1,164.67,18.82Z"/><path class="cls-1" d="M54.79,17.64a.47.47,0,0,1,.36-.22C55.11,17.6,55,17.65,54.79,17.64Z"/><path class="cls-5" d="M89.52,17.22a.29.29,0,0,1,.27.18A.27.27,0,0,1,89.52,17.22Z"/><path class="cls-1" d="M79.25,54.82a.39.39,0,0,0-.31.37c0,.13,0,.27,0,.41a.36.36,0,0,1-.37.37c-.26,0-.44,0-.52-.25a1.45,1.45,0,0,1-.13-.45c0-.46,0-.93,0-1.39s.13-.42.42-.45h8.5a3.54,3.54,0,0,1,.46,0,.38.38,0,0,1,.38.42.54.54,0,0,1,0,.18.39.39,0,0,1-.39.42,4.47,4.47,0,0,1-.52,0H79.65a.41.41,0,0,0-.39.3Z"/><path class="cls-1" d="M201,54.77a1,1,0,0,1-.46,0,.2.2,0,0,0-.22-.15A.36.36,0,0,0,200,55a.38.38,0,0,1-.24.13c0-.13-.13-.2-.25-.11s-.5.37-.75.55a1.09,1.09,0,0,1-.57.25c-.29,0-.44-.15-.37-.43a6.17,6.17,0,0,1,.19-.61,2,2,0,0,1,1-1c.31-.15.64-.25,1-.37.13.09.19,0,.23-.11h.58a.8.8,0,0,0,.5.11h2a.79.79,0,0,0,.5-.11l.93.12a.3.3,0,0,0,.24.22,1.42,1.42,0,0,1,.84.34,4,4,0,0,1,.9.89,1.42,1.42,0,0,1,.24.53l-.13.19a.48.48,0,0,1-.63.22,1.12,1.12,0,0,1-.44-.27.76.76,0,0,0-.55-.26h0c-.11-.29-.11-.29-.35-.23h-.35l-.47-.17c0-.13-.11-.17-.22-.07l-.36,0a.35.35,0,0,0-.34-.17h-1.76A.38.38,0,0,0,201,54.77Z"/><path class="cls-5" d="M198,54.82a6.17,6.17,0,0,0-.19.61c-.07.28.08.45.37.43a1.09,1.09,0,0,0,.57-.25c.25-.18.49-.38.75-.55s.21,0,.25.11a4.76,4.76,0,0,0-1.07,1.29.31.31,0,0,0-.2.19,2.27,2.27,0,0,0-.17,1.58,5.7,5.7,0,0,0,.16.55c0,.07.06.14.08.22s.09.4-.1.53a.5.5,0,0,1-.55-.05,1.27,1.27,0,0,1-.64-.79,4.85,4.85,0,0,1,0-2.8,3.15,3.15,0,0,1,.41-.82A.59.59,0,0,1,198,54.82Z"/><path class="cls-5" d="M205.21,55.29a.76.76,0,0,1,.55.26,1.12,1.12,0,0,0,.44.27.48.48,0,0,0,.63-.22l.13-.19a.57.57,0,0,1,.25.37,3.64,3.64,0,0,1,.21,1.13v.93a2.66,2.66,0,0,1-.12.74.8.8,0,0,1-.49.54c-.37.16-.65,0-.63-.45,0-.23.07-.46.11-.69a2.54,2.54,0,0,0-.23-1.46A6.13,6.13,0,0,0,205.21,55.29Z"/><path class="cls-5" d="M203.81,53.31a.79.79,0,0,1-.5.11h-2a.8.8,0,0,1-.5-.11.81.81,0,0,1,.5-.12c.68,0,1.35,0,2,0A.79.79,0,0,1,203.81,53.31Z"/><path class="cls-5" d="M204.86,55.06c.24-.06.24-.06.35.23h-.35Z"/><path class="cls-5" d="M200.2,53.32c0,.12-.1.2-.23.11Z"/><path class="cls-5" d="M205,53.65a.3.3,0,0,1-.24-.22A.3.3,0,0,1,205,53.65Z"/><path class="cls-1" d="M153.37,54.76a3.29,3.29,0,0,0-1.75.78s-.09-.08-.14,0,0,.1,0,.14a.55.55,0,0,1-.19.26l-.29,0-.22,0c-.65.24-.65.24-1.06-.29a3.73,3.73,0,0,1,3.13-2.34,17,17,0,0,1,2.67-.09,6.82,6.82,0,0,1,1.55.22,1.69,1.69,0,0,1,.68.31,11,11,0,0,1,1.1.95,1,1,0,0,1,.3.48c0,.17.07.34.09.52a.35.35,0,0,1-.38.4.91.91,0,0,1-.62-.27,1,1,0,0,0-.49-.3.88.88,0,0,0-.45-.11.16.16,0,0,1-.13-.12.3.3,0,0,0-.35-.23l-.11,0a.42.42,0,0,0-.58-.2,1.08,1.08,0,0,1-.47-.07c-.12-.17-.3-.16-.47-.16H153.6q-.18-.12-.21.09A.12.12,0,0,0,153.37,54.76Z"/><path class="cls-5" d="M157.79,55.52a1,1,0,0,1,.49.3.91.91,0,0,0,.62.27.35.35,0,0,0,.38-.4c0-.18-.06-.35-.09-.52a2.47,2.47,0,0,1,.58,1.48c0,.44,0,.89,0,1.33a2.35,2.35,0,0,1-.35,1.15,1.25,1.25,0,0,1-.67.53c-.27.12-.5-.09-.45-.39a1.69,1.69,0,0,1,.12-.44,3.49,3.49,0,0,0,.18-1.6,2.35,2.35,0,0,0-.39-1.08.54.54,0,0,0-.43-.26h0Z"/><path class="cls-5" d="M149.76,55.64c.41.53.41.53,1.06.29l.22,0v.48a.13.13,0,0,1,0,.1.5.5,0,0,0-.3.33,2.46,2.46,0,0,0-.09,1.37c.06.28.16.56.23.84s.16.48-.07.64-.41,0-.59-.12a.78.78,0,0,1-.36-.36,3,3,0,0,1-.42-1.49,4.72,4.72,0,0,1,.12-1.5A1.48,1.48,0,0,1,149.76,55.64Z"/><path class="cls-5" d="M230.61,55.08a10.39,10.39,0,0,1-.1,1.74,3.13,3.13,0,0,0,0,.75,3.74,3.74,0,0,1-.21,1.2,1.33,1.33,0,0,1-.64.72.66.66,0,0,1-.39.09.26.26,0,0,1-.25-.27,1.68,1.68,0,0,1,.07-.39,4.92,4.92,0,0,0,.26-1.83c0-.6,0-1.2,0-1.8a4.47,4.47,0,0,0-.07-1,1.08,1.08,0,0,1,0-.4c.08-.43.23-.55.68-.55H230c.5,0,.6.1.61.62C230.61,54.3,230.61,54.66,230.61,55.08Z"/><path class="cls-1" d="M96.94,22.11c.34.09.34.09.37.47A.9.9,0,0,1,96.94,22.11Z"/><path class="cls-1" d="M101.86,55.88a10.16,10.16,0,0,1-.11-1.91c0-.57.13-.68.68-.68s.65.16.65.67,0,.74,0,1.1v.7a.35.35,0,0,0-.11,0A1.18,1.18,0,0,1,101.86,55.88Z"/><path class="cls-3" d="M135.31,57.86c0,.54,0,1.08,0,1.62a2,2,0,0,1,0,.35,5.53,5.53,0,0,0-.1,1.15c0,.5-.12.59-.63.61a1.58,1.58,0,0,1-1.16-.42c-.53-.45-1-.94-1.52-1.42-.26-.24-.53-.45-.79-.68s-.23-.26-.35-.39a1.27,1.27,0,0,1,.55.13,1,1,0,0,0,.62.07.22.22,0,0,0,.19-.24c0-.15,0-.3-.05-.45a2.16,2.16,0,0,1,.6.44,1.34,1.34,0,0,0,.21.2.7.7,0,0,0,1.11-.25,2.05,2.05,0,0,0,.16-.95.49.49,0,0,1,.31.22.34.34,0,0,0,.49.1A.68.68,0,0,1,135.31,57.86Z"/><path class="cls-5" d="M132.06,58.19c0,.15,0,.3.05.45a.22.22,0,0,1-.19.24,1,1,0,0,1-.62-.07,1.27,1.27,0,0,0-.55-.13,10.53,10.53,0,0,1-1.46-1.3,8.94,8.94,0,0,0-.85-.77.91.91,0,0,1-.39-.49,2.62,2.62,0,0,1,1,.43.83.83,0,0,0,.55.12.23.23,0,0,0,.18-.26,2.13,2.13,0,0,1-.17-.67,1.92,1.92,0,0,1,.22.18C130.58,56.68,131.36,57.39,132.06,58.19Z"/><path class="cls-5" d="M126.46,53.29a.22.22,0,0,1-.36,0A.27.27,0,0,1,126.46,53.29Z"/><path class="cls-5" d="M134.05,56.69c.13,0,.19.11.09.23A.32.32,0,0,1,134.05,56.69Z"/><path class="cls-1" d="M245.75,55.34c0,.39,0,.77,0,1.16a5,5,0,0,1-.14,1.09,1.31,1.31,0,0,1-.08.21.41.41,0,0,1-.36.26.42.42,0,0,1-.4-.28,1.34,1.34,0,0,1-.06-.4c0-.42-.06-.84-.09-1.27-.06-.78,0-1.58,0-2.37,0-.29.14-.4.44-.42h.23c.33,0,.46.14.47.47,0,.52,0,1,0,1.56Z"/><path class="cls-5" d="M105.92,55.51a.34.34,0,0,1,.26-.22A.27.27,0,0,1,105.92,55.51Z"/><path class="cls-5" d="M110,53.52c.15-.08.22,0,.25.12A.32.32,0,0,1,110,53.52Z"/><path class="cls-1" d="M167.8,23.14a.49.49,0,0,1-.3-.33,9.37,9.37,0,0,0-.8-1.58,1,1,0,0,1-.17-.54l.43.38a3.67,3.67,0,0,0,.36.84A5.6,5.6,0,0,1,167.8,23.14Z"/><path class="cls-1" d="M166.53,20.68c-.26,0-.34-.22-.35-.46l.31.15C166.5,20.48,166.52,20.58,166.53,20.68Z"/><path class="cls-3" d="M201,54.77a.38.38,0,0,1,.35-.17h1.76a.35.35,0,0,1,.34.17Z"/><path class="cls-5" d="M200,55a.36.36,0,0,1,.36-.38.2.2,0,0,1,.22.15A2.07,2.07,0,0,1,200,55Z"/><path class="cls-3" d="M204.86,55.06v.23a.64.64,0,0,1-.35-.23Z"/><path class="cls-3" d="M203.82,54.82c.11-.1.18-.06.22.07A.23.23,0,0,1,203.82,54.82Z"/><path class="cls-3" d="M153.6,54.59h1.63c.17,0,.35,0,.47.16h-2.33a.12.12,0,0,1,0-.08Z"/><path class="cls-3" d="M157.79,55.52v.36a1.41,1.41,0,0,1-.44-.47A.88.88,0,0,1,157.79,55.52Z"/><path class="cls-3" d="M156.17,54.82a.42.42,0,0,1,.58.2A1.6,1.6,0,0,1,156.17,54.82Z"/><path class="cls-3" d="M151.05,56.36v-.48l.29,0A1.1,1.1,0,0,1,151.05,56.36Z"/><path class="cls-3" d="M156.86,55.06a.3.3,0,0,1,.35.23A.6.6,0,0,1,156.86,55.06Z"/><path class="cls-5" d="M151.52,55.64s-.08-.09,0-.14.1,0,.14,0A.09.09,0,0,1,151.52,55.64Z"/><path class="cls-5" d="M153.6,54.59l-.21.09Q153.42,54.47,153.6,54.59Z"/></g></g></svg>