<svg xmlns="http://www.w3.org/2000/svg" viewBox="0 0 248.18 248.18"><defs><style>.cls-1{fill:#f4c157;}.cls-2{fill:#fbd361;}</style></defs><title>sun</title><g id="Layer_2" data-name="Layer 2"><g id="Layer_1-2" data-name="Layer 1"><path class="cls-1" d="M248.18,128c-1.08-.62-.87.5-1.08.88a10.66,10.66,0,0,1-9.9,5.81c-5.49,0-11,0-16.47,0-6.47-.05-11-4.51-11-10.69s4.59-10.39,11-10.44c5,0,10,.08,15,0,5.21-.13,9.34,1.48,11.61,6.51a1.42,1.42,0,0,0,.52.48s.19-.17.3-.27Z"/><path class="cls-1" d="M128,0c-.52.81.27.8.66,1,4.18,2.13,6,5.64,6,10.22,0,5.41.05,10.82,0,16.23-.07,6.49-4.53,11-10.7,11s-10.38-4.56-10.45-11c-.05-4.69.13-9.37-.05-14-.2-5.6,1.16-10.24,6.73-12.72a.55.55,0,0,0,.28-.37c0-.09-.17-.21-.26-.31Z"/><path class="cls-1" d="M0,120.21c1.07.58.87-.51,1.08-.89a10.62,10.62,0,0,1,9.9-5.8c5.49,0,11,0,16.47,0,6.48,0,11,4.5,11,10.69s-4.58,10.39-11,10.45c-4.68,0-9.37-.14-14,0C7.79,134.91,3.17,133.55.68,128a.55.55,0,0,0-.37-.28c-.09,0-.21.17-.31.27Z"/><path class="cls-1" d="M120.21,248.18c-.4-.84-.4-.85-.87-1.1a10.58,10.58,0,0,1-5.83-9.88c0-5.49-.05-11,0-16.47.06-6.41,4.4-10.91,10.45-11s10.63,4.46,10.7,11c.06,5-.06,10,0,15,.11,5.2-1.5,9.34-6.53,11.61a1.51,1.51,0,0,0-.48.52,2.76,2.76,0,0,0,.28.3Z"/><path class="cls-2" d="M98.81,190.76c-24.62-10-40.08-28-44.83-54.06-6.5-35.71,13.9-69.3,48.27-80.47C121.43,50,140.11,52,158,61.28a124.52,124.52,0,0,1,4.93,24.1c1,11.39.72,22.71-2.26,33.81-5.37,20-16,36.76-31.21,50.76a116.17,116.17,0,0,1-28.53,19.29A3.92,3.92,0,0,0,98.81,190.76Z"/><path class="cls-1" d="M98.81,190.76a3.92,3.92,0,0,1,2.12-1.52A116.17,116.17,0,0,0,129.46,170c15.24-14,25.84-30.76,31.21-50.76,3-11.1,3.26-22.42,2.26-33.81A124.52,124.52,0,0,0,158,61.28a68.59,68.59,0,0,1,28.27,27.65c24,42.24-.9,96.31-48.58,105.31A69,69,0,0,1,98.81,190.76Z"/><path class="cls-1" d="M204.52,33.31c4.33.15,7.64,2,9.4,6s1.39,8-1.64,11.3C208,55.26,203.52,59.71,198.92,64a10.46,10.46,0,0,1-14.67-14.87c4.28-4.51,8.73-8.86,13.18-13.2A9.51,9.51,0,0,1,204.52,33.31Z"/><path class="cls-1" d="M43.66,214.86c-4.33-.14-7.64-2-9.4-6s-1.41-8,1.63-11.28c4.29-4.61,8.76-9.06,13.35-13.37a10.54,10.54,0,0,1,14.3.37c3.8,3.86,4.21,10.37.54,14.31-4.35,4.66-8.94,9.1-13.52,13.54A9.35,9.35,0,0,1,43.66,214.86Z"/><path class="cls-1" d="M43.69,33.31a10,10,0,0,1,7.44,3c4.19,4.15,8.4,8.28,12.5,12.52A10.49,10.49,0,0,1,48.84,63.68C44.55,59.53,40.31,55.31,36.18,51c-3.17-3.3-3.72-7.31-2-11.45S39.25,33.44,43.69,33.31Z"/><path class="cls-1" d="M214.86,204.37c-.1,4.32-1.9,7.67-5.91,9.48s-8.16,1.49-11.49-1.63c-4.54-4.24-8.93-8.66-13.2-13.18A10.47,10.47,0,0,1,199.1,184.3c4.46,4.23,8.75,8.62,13,13A9.65,9.65,0,0,1,214.86,204.37Z"/></g></g></svg>