<svg xmlns="http://www.w3.org/2000/svg" viewBox="0 0 248.17 248.25"><defs><style>.cls-1{fill:#bf392b;}.cls-2{fill:#fdfcfc;}</style></defs><title>tr</title><g id="Layer_2" data-name="Layer 2"><g id="Layer_1-2" data-name="Layer 1"><path class="cls-1" d="M0,124A124,124,0,0,1,124.19,0c69.05.13,124.12,55.77,124,125.28-.13,67.65-56.11,123.07-124.22,123A124,124,0,0,1,0,124Zm148.06,35.69c-10.61,8.37-22,12-34.73,10.61A44.87,44.87,0,0,1,82,153.07c-13.56-17-13.07-41.33.56-58.11,12-14.72,40-25.54,65-6.45C143.35,76,114.87,65,94.61,68c-26.45,4-47.32,27.81-47.83,54.55-.54,28.82,18.66,52.68,47,58C117.75,185.17,139.67,172.71,148.06,159.69Zm53.47-49-.28-.44c-4.84,1.45-9.71,2.8-14.5,4.4-2,.67-3,.28-4.17-1.49-2.73-4.24-5.71-8.31-8.58-12.45l-.85.16c0,4.54,0,9.08,0,13.61,0,4.24-.07,4.22-4.1,5.42-4.42,1.31-8.82,2.67-13.76,4.17,5.49,1.93,10.33,3.73,15.24,5.3,1.82.59,2.3,1.47,2.25,3.32-.15,5.12-.05,10.24-.05,15.85,3.22-4.23,6.32-8,9.08-12,1.46-2.13,2.77-2.36,5.07-1.44,4.56,1.83,9.27,3.3,14.49,5.11-3.08-4.45-5.61-8.47-8.52-12.2-1.78-2.27-1.91-3.83.06-6.1C196,118.31,198.67,114.41,201.53,110.65Z"/><path class="cls-2" d="M148.06,159.69c-8.39,13-30.31,25.48-54.25,20.95-28.37-5.37-47.57-29.23-47-58C47.29,95.85,68.16,72.05,94.61,68c20.26-3.07,48.74,7.93,53,20.47-25-19.09-53.05-8.27-65,6.45C69,111.74,68.46,136.07,82,153.07a44.87,44.87,0,0,0,31.31,17.23C126,171.66,137.45,168.06,148.06,159.69Z"/><path class="cls-2" d="M201.53,110.65c-2.86,3.76-5.53,7.66-8.63,11.21-2,2.27-1.84,3.83-.06,6.1,2.91,3.73,5.44,7.75,8.52,12.2-5.22-1.81-9.93-3.28-14.49-5.11-2.3-.92-3.61-.69-5.07,1.44-2.76,4-5.86,7.78-9.08,12,0-5.61-.1-10.73.05-15.85,0-1.85-.43-2.73-2.25-3.32-4.91-1.57-9.75-3.37-15.24-5.3,4.94-1.5,9.34-2.86,13.76-4.17,4-1.2,4.07-1.18,4.1-5.42,0-4.53,0-9.07,0-13.61l.85-.16c2.87,4.14,5.85,8.21,8.58,12.45,1.14,1.77,2.18,2.16,4.17,1.49,4.79-1.6,9.66-3,14.5-4.4Z"/></g></g></svg>